<svg width="14" height="14" viewBox="0 0 14 14" fill="none" xmlns="http://www.w3.org/2000/svg">
<path d="M11.3333 7.99838C11.1565 7.99838 10.987 8.06862 10.8619 8.19365C10.7369 8.31867 10.6667 8.48824 10.6667 8.66505V8.91838L9.68 7.93172C9.33162 7.58608 8.86075 7.39213 8.37 7.39213C7.87925 7.39213 7.40838 7.58608 7.06 7.93172L6.59333 8.39838L4.94 6.74505C4.58675 6.40879 4.11771 6.22124 3.63 6.22124C3.14229 6.22124 2.67325 6.40879 2.32 6.74505L1.33333 7.73172V3.99838C1.33333 3.82157 1.40357 3.652 1.5286 3.52698C1.65362 3.40196 1.82319 3.33172 2 3.33172H6.66667C6.84348 3.33172 7.01305 3.26148 7.13807 3.13646C7.2631 3.01143 7.33333 2.84186 7.33333 2.66505C7.33333 2.48824 7.2631 2.31867 7.13807 2.19365C7.01305 2.06862 6.84348 1.99838 6.66667 1.99838H2C1.46957 1.99838 0.960859 2.2091 0.585787 2.58417C0.210714 2.95924 0 3.46795 0 3.99838V11.9984C0 12.5288 0.210714 13.0375 0.585787 13.4126C0.960859 13.7877 1.46957 13.9984 2 13.9984H10C10.5304 13.9984 11.0391 13.7877 11.4142 13.4126C11.7893 13.0375 12 12.5288 12 11.9984V8.66505C12 8.48824 11.9298 8.31867 11.8047 8.19365C11.6797 8.06862 11.5101 7.99838 11.3333 7.99838ZM2 12.6651C1.82319 12.6651 1.65362 12.5948 1.5286 12.4698C1.40357 12.3448 1.33333 12.1752 1.33333 11.9984V9.61838L3.26667 7.68505C3.36461 7.59172 3.49471 7.53965 3.63 7.53965C3.76529 7.53965 3.89539 7.59172 3.99333 7.68505L6.10667 9.79838L8.97333 12.6651H2ZM10.6667 11.9984C10.6657 12.126 10.6236 12.2499 10.5467 12.3517L7.54 9.33172L8.00667 8.86505C8.05446 8.81627 8.11151 8.77752 8.17447 8.75106C8.23743 8.7246 8.30504 8.71098 8.37333 8.71098C8.44163 8.71098 8.50923 8.7246 8.5722 8.75106C8.63516 8.77752 8.6922 8.81627 8.74 8.86505L10.6667 10.8051V11.9984ZM13.8067 2.19172L11.8067 0.191718C11.7433 0.131024 11.6685 0.0834476 11.5867 0.051718C11.4244 -0.0149607 11.2423 -0.0149607 11.08 0.051718C10.9982 0.0834476 10.9234 0.131024 10.86 0.191718L8.86 2.19172C8.79784 2.25388 8.74853 2.32767 8.71489 2.40889C8.68125 2.4901 8.66394 2.57715 8.66394 2.66505C8.66394 2.84259 8.73446 3.01285 8.86 3.13838C8.98554 3.26392 9.1558 3.33445 9.33333 3.33445C9.51087 3.33445 9.68113 3.26392 9.80667 3.13838L10.6667 2.27172V5.99838C10.6667 6.1752 10.7369 6.34476 10.8619 6.46979C10.987 6.59481 11.1565 6.66505 11.3333 6.66505C11.5101 6.66505 11.6797 6.59481 11.8047 6.46979C11.9298 6.34476 12 6.1752 12 5.99838V2.27172L12.86 3.13838C12.922 3.20087 12.9957 3.25047 13.0769 3.28431C13.1582 3.31816 13.2453 3.33558 13.3333 3.33558C13.4213 3.33558 13.5085 3.31816 13.5897 3.28431C13.671 3.25047 13.7447 3.20087 13.8067 3.13838C13.8692 3.07641 13.9187 3.00268 13.9526 2.92144C13.9864 2.8402 14.0039 2.75306 14.0039 2.66505C14.0039 2.57704 13.9864 2.48991 13.9526 2.40867C13.9187 2.32743 13.8692 2.25369 13.8067 2.19172Z" fill="#8492C4"/>
</svg>
