<svg width="14" height="16" viewBox="0 0 14 16" fill="none" xmlns="http://www.w3.org/2000/svg">
<path d="M5.38852 0.681885C3.28852 0.681885 1.61929 2.36236 1.61929 4.4765C1.61561 5.0982 1.76459 5.71118 2.05299 6.26094C2.34139 6.8107 2.76027 7.28018 3.27237 7.62765C1.35544 8.45867 0.00390625 10.3809 0.00390625 12.6078H1.08083C1.08083 10.2226 3.01929 8.27111 5.38852 8.27111C7.48852 8.27111 9.15775 6.59064 9.15775 4.4765C9.15775 2.36236 7.48852 0.681885 5.38852 0.681885ZM5.38852 1.76606C6.89621 1.76606 8.08083 2.95865 8.08083 4.4765C8.08083 5.99434 6.89621 7.18694 5.38852 7.18694C3.88083 7.18694 2.69621 5.99434 2.69621 4.4765C2.69621 2.95865 3.88083 1.76606 5.38852 1.76606ZM8.08083 8.27111C7.48852 8.27111 7.00391 8.75899 7.00391 9.35529V11.7405L10.2347 14.993C10.4501 15.2098 10.7193 15.3182 10.9885 15.3182C11.2578 15.3182 11.527 15.2098 11.7424 14.993L13.6808 13.0415C13.8962 12.8246 14.0039 12.5536 14.0039 12.2826C14.0039 12.0115 13.8962 11.7405 13.6808 11.5236L10.4501 8.27111H8.08083ZM8.08083 9.35529H10.0193L12.927 12.2826L10.9885 14.2341L8.08083 11.3068V9.35529ZM9.15775 9.89737C9.01494 9.89737 8.87798 9.95449 8.777 10.0561C8.67602 10.1578 8.61929 10.2957 8.61929 10.4395C8.61929 10.5832 8.67602 10.7211 8.777 10.8228C8.87798 10.9244 9.01494 10.9815 9.15775 10.9815C9.30056 10.9815 9.43752 10.9244 9.5385 10.8228C9.63948 10.7211 9.69621 10.5832 9.69621 10.4395C9.69621 10.2957 9.63948 10.1578 9.5385 10.0561C9.43752 9.95449 9.30056 9.89737 9.15775 9.89737Z" fill="#8492C4"/>
</svg>
