<?xml version="1.0" encoding="UTF-8"?>
<!DOCTYPE svg PUBLIC "-//W3C//DTD SVG 1.1//EN" "http://www.w3.org/Graphics/SVG/1.1/DTD/svg11.dtd">
<svg xmlns="http://www.w3.org/2000/svg" version="1.1" width="270px" height="270px" style="shape-rendering:geometricPrecision; text-rendering:geometricPrecision; image-rendering:optimizeQuality; fill-rule:evenodd; clip-rule:evenodd" xmlns:xlink="http://www.w3.org/1999/xlink">
<g><path style="opacity:0.977" fill="#fecd08" d="M 121.5,-0.5 C 129.833,-0.5 138.167,-0.5 146.5,-0.5C 207.012,7.50957 246.845,40.5096 266,98.5C 267.204,103.965 268.37,109.299 269.5,114.5C 269.5,127.833 269.5,141.167 269.5,154.5C 265.131,179.903 254.798,202.569 238.5,222.5C 231.988,228.513 225.654,234.679 219.5,241C 197.159,257.503 172.159,267.003 144.5,269.5C 137.5,269.5 130.5,269.5 123.5,269.5C 79.3758,265.023 44.5425,244.69 19,208.5C 9.98544,193.478 3.48544,177.478 -0.5,160.5C -0.5,143.167 -0.5,125.833 -0.5,108.5C 9.72958,62.4261 36.3962,29.5927 79.5,10C 93.2004,4.69922 107.2,1.19922 121.5,-0.5 Z"/></g>
<g><path style="opacity:1" fill="#fcfaf7" d="M 120.5,182.5 C 120.5,186.833 120.5,191.167 120.5,195.5C 111.167,195.5 101.833,195.5 92.5,195.5C 67.0889,192.925 55.2556,178.925 57,153.5C 60.1967,141.47 67.6967,133.47 79.5,129.5C 66.5726,120.906 61.7393,108.906 65,93.5C 69.2978,80.8794 78.1311,73.7127 91.5,72C 101.161,71.5002 110.828,71.3335 120.5,71.5C 120.5,76.1667 120.5,80.8333 120.5,85.5C 110.434,85.1048 100.434,85.6048 90.5,87C 79.3766,95.7061 77.5433,106.206 85,118.5C 87.559,121.531 90.7257,123.698 94.5,125C 106.162,125.5 117.829,125.667 129.5,125.5C 129.333,108.83 129.5,92.1633 130,75.5C 130.833,74 132,72.8333 133.5,72C 146.5,71.3333 159.5,71.3333 172.5,72C 200.157,75.8158 209.657,90.9824 201,117.5C 198.167,123 194,127.167 188.5,130C 208.53,137.891 216.03,152.391 211,173.5C 204.962,186.45 194.795,193.95 180.5,196C 164.833,196.667 149.167,196.667 133.5,196C 132.299,195.097 131.465,193.931 131,192.5C 130.5,174.503 130.333,156.503 130.5,138.5C 116.449,138.091 102.449,138.591 88.5,140C 76.1429,145.215 71.6429,154.382 75,167.5C 77.5023,175.678 83.0023,180.512 91.5,182C 101.161,182.5 110.828,182.666 120.5,182.5 Z"/></g>
<g><path style="opacity:1" fill="#fdda54" d="M 169.5,86.5 C 161.833,86.5 154.167,86.5 146.5,86.5C 146.5,99.5 146.5,112.5 146.5,125.5C 154.5,125.5 162.5,125.5 170.5,125.5C 162.35,126.493 154.017,126.826 145.5,126.5C 145.5,112.833 145.5,99.1667 145.5,85.5C 153.684,85.1743 161.684,85.5076 169.5,86.5 Z"/></g>
<g><path style="opacity:1" fill="#fecd0a" d="M 169.5,86.5 C 185.091,88.9791 190.591,97.9791 186,113.5C 182.981,120.361 177.814,124.361 170.5,125.5C 162.5,125.5 154.5,125.5 146.5,125.5C 146.5,112.5 146.5,99.5 146.5,86.5C 154.167,86.5 161.833,86.5 169.5,86.5 Z"/></g>
<g><path style="opacity:1" fill="#fecd0e" d="M 145.5,139.5 C 155.506,139.334 165.506,139.5 175.5,140C 193.682,144.864 199.182,156.031 192,173.5C 188.665,178.169 184.165,181.002 178.5,182C 167.505,182.5 156.505,182.667 145.5,182.5C 145.5,168.167 145.5,153.833 145.5,139.5 Z"/></g>
<g><path style="opacity:1" fill="#fde074" d="M 120.5,182.5 C 121.486,186.97 121.819,191.637 121.5,196.5C 111.652,196.827 101.986,196.494 92.5,195.5C 101.833,195.5 111.167,195.5 120.5,195.5C 120.5,191.167 120.5,186.833 120.5,182.5 Z"/></g>
</svg>
