<svg width="638" height="568" viewBox="0 0 638 568" fill="none" xmlns="http://www.w3.org/2000/svg">
<path d="M574.072 508.473H531.811V508.792H574.072V508.473Z" fill="#EBEBEB"/>
<path d="M422.637 511.944H411.548V512.263H422.637V511.944Z" fill="#EBEBEB"/>
<path d="M530.535 496.632H506.049V496.951H530.535V496.632Z" fill="#EBEBEB"/>
<path d="M122.049 498.776H66.939V499.095H122.049V498.776Z" fill="#EBEBEB"/>
<path d="M141.496 498.776H133.418V499.095H141.496V498.776Z" fill="#EBEBEB"/>
<path d="M287.291 504.16H167.756V504.479H287.291V504.16Z" fill="#EBEBEB"/>
<path d="M302.412 431.033H56.0418C54.1095 431.033 52.2563 430.265 50.8899 428.899C49.5235 427.533 48.7559 425.679 48.7559 423.747V77.4022C48.7727 75.4809 49.5477 73.6441 50.9123 72.2915C52.2769 70.9388 54.1205 70.18 56.0418 70.1801H302.412C304.344 70.1801 306.197 70.9477 307.564 72.3141C308.93 73.6804 309.698 75.5337 309.698 77.466V423.747C309.698 425.679 308.93 427.533 307.564 428.899C306.197 430.265 304.344 431.033 302.412 431.033ZM56.0418 70.4353C54.1951 70.4386 52.425 71.1737 51.1192 72.4796C49.8133 73.7854 49.0782 75.5555 49.0749 77.4022V423.747C49.0782 425.594 49.8133 427.364 51.1192 428.67C52.425 429.975 54.1951 430.71 56.0418 430.714H302.412C304.259 430.71 306.029 429.975 307.335 428.67C308.64 427.364 309.376 425.594 309.379 423.747V77.4022C309.376 75.5555 308.64 73.7854 307.335 72.4796C306.029 71.1737 304.259 70.4386 302.412 70.4353H56.0418Z" fill="#EBEBEB"/>
<path d="M578.424 431.033H332.028C330.097 431.029 328.245 430.261 326.88 428.895C325.514 427.529 324.745 425.678 324.742 423.747V77.4022C324.762 75.482 325.538 73.647 326.902 72.2951C328.266 70.9432 330.108 70.1833 332.028 70.1801H578.424C580.34 70.1867 582.178 70.9485 583.537 72.3004C584.896 73.6523 585.667 75.4853 585.684 77.4022V423.747C585.684 425.675 584.92 427.524 583.559 428.89C582.198 430.255 580.351 431.026 578.424 431.033ZM332.028 70.4353C330.181 70.4386 328.411 71.1737 327.105 72.4796C325.799 73.7854 325.064 75.5555 325.061 77.4022V423.747C325.064 425.594 325.799 427.364 327.105 428.67C328.411 429.975 330.181 430.71 332.028 430.714H578.424C580.27 430.71 582.04 429.975 583.346 428.67C584.652 427.364 585.387 425.594 585.39 423.747V77.4022C585.387 75.5555 584.652 73.7854 583.346 72.4796C582.04 71.1737 580.27 70.4386 578.424 70.4353H332.028Z" fill="#EBEBEB"/>
<path d="M638 487.942H0V488.261H638V487.942Z" fill="#EBEBEB"/>
<path d="M106.061 418.847C106.061 418.847 100.115 352.176 69.1208 288.044C69.1208 288.044 114.878 330.752 116.486 418.847H106.061Z" fill="#F5F5F5"/>
<path d="M143.486 424.053C143.486 424.053 149.42 357.331 180.414 293.263C180.414 293.263 134.656 335.971 133.049 424.053H143.486Z" fill="#F5F5F5"/>
<path d="M113.283 429.17C113.283 429.17 88.3758 313.054 92.8673 251.512C92.8673 251.512 126.184 319.983 124.576 423.479L113.283 429.17Z" fill="#E6E6E6"/>
<path d="M131.67 421.833C131.67 421.833 134.044 346.013 146.217 308.55C146.217 308.55 156.425 356.106 139.505 420.034L131.67 421.833Z" fill="#F0F0F0"/>
<path d="M124.512 423.479C124.512 423.479 116.486 322.369 138.956 277.045C138.956 277.045 141.355 368.917 135.741 423.479H124.512Z" fill="#F5F5F5"/>
<path d="M150.16 488.147H99.3749L92.1145 413.207H157.42L150.16 488.147Z" fill="#F0F0F0"/>
<path d="M304.977 488.147H299.873L298.597 350.249H306.253L304.977 488.147Z" fill="#EBEBEB"/>
<path d="M508.001 488.147H502.897L501.621 350.249H509.277L508.001 488.147Z" fill="#EBEBEB"/>
<path d="M524.768 353.452H283.106C281.38 353.452 279.725 352.766 278.505 351.546C277.284 350.326 276.599 348.67 276.599 346.944H531.275C531.275 348.67 530.59 350.326 529.369 351.546C528.149 352.766 526.494 353.452 524.768 353.452Z" fill="#F0F0F0"/>
<path d="M425.572 467.131V402.999H412.314V467.131L372.962 470.397V476.777L418.949 474.225L464.923 476.777V470.397L425.572 467.131Z" fill="#EBEBEB"/>
<path d="M378.219 482.89C378.219 483.929 377.911 484.946 377.333 485.81C376.756 486.675 375.935 487.349 374.974 487.746C374.013 488.144 372.956 488.248 371.937 488.046C370.917 487.843 369.98 487.342 369.245 486.607C368.51 485.872 368.009 484.935 367.806 483.915C367.603 482.895 367.707 481.838 368.105 480.878C368.503 479.917 369.177 479.096 370.041 478.518C370.906 477.941 371.922 477.632 372.962 477.632C373.653 477.631 374.337 477.766 374.976 478.029C375.615 478.293 376.195 478.68 376.683 479.168C377.172 479.657 377.559 480.237 377.823 480.876C378.086 481.514 378.221 482.199 378.219 482.89Z" fill="#E0E0E0"/>
<path d="M470.181 482.89C470.181 483.929 469.872 484.946 469.295 485.81C468.717 486.675 467.896 487.349 466.935 487.746C465.975 488.144 464.918 488.248 463.898 488.046C462.878 487.843 461.941 487.342 461.206 486.607C460.471 485.872 459.97 484.935 459.767 483.915C459.564 482.895 459.669 481.838 460.066 480.878C460.464 479.917 461.138 479.096 462.003 478.518C462.867 477.941 463.884 477.632 464.923 477.632C465.614 477.631 466.299 477.766 466.937 478.029C467.576 478.293 468.156 478.68 468.644 479.168C469.133 479.657 469.52 480.237 469.784 480.876C470.047 481.514 470.182 482.199 470.181 482.89Z" fill="#E0E0E0"/>
<path d="M424.206 482.89C424.209 483.933 423.902 484.953 423.323 485.822C422.745 486.691 421.922 487.368 420.959 487.769C419.996 488.169 418.935 488.274 417.911 488.072C416.888 487.869 415.948 487.366 415.21 486.629C414.472 485.891 413.97 484.951 413.767 483.927C413.564 482.904 413.67 481.843 414.07 480.88C414.471 479.916 415.148 479.093 416.017 478.515C416.885 477.937 417.906 477.63 418.949 477.632C420.343 477.632 421.681 478.186 422.666 479.172C423.652 480.158 424.206 481.495 424.206 482.89Z" fill="#E0E0E0"/>
<path d="M381.996 397.729L379.648 321.284C379.592 319.547 378.863 317.901 377.616 316.691C376.368 315.482 374.7 314.804 372.962 314.802V400.077C372.966 401.849 373.671 403.548 374.924 404.801C376.177 406.054 377.876 406.76 379.648 406.763H464.923C464.924 405.027 464.25 403.358 463.042 402.111C461.835 400.863 460.19 400.133 458.454 400.077L381.996 397.729Z" fill="#E6E6E6"/>
<path d="M439.123 327.932C439.112 326.989 438.73 326.088 438.058 325.426C437.386 324.764 436.48 324.394 435.537 324.397H414.113C413.17 324.397 412.264 324.768 411.591 325.429C410.918 326.09 410.531 326.989 410.515 327.932V328.2C409.745 327.945 408.94 327.811 408.128 327.804C404.607 327.804 402.246 330.548 402.246 334.631C402.246 338.714 406.355 341.458 410.03 341.458C410.402 341.452 410.774 341.414 411.14 341.343C411.992 343.968 413.555 346.304 415.657 348.093H433.98C435.631 346.7 436.958 344.963 437.869 343.003C438.779 341.044 439.25 338.91 439.25 336.749C439.25 335.346 439.199 332.028 439.123 327.932ZM410.03 339.174C407.542 339.174 404.543 337.145 404.543 334.631C404.543 333.559 404.798 330.088 408.128 330.088C408.94 330.101 409.74 330.284 410.476 330.624C410.476 333.444 410.4 335.665 410.4 336.749C410.407 337.549 410.479 338.347 410.617 339.135C410.422 339.165 410.226 339.182 410.03 339.186V339.174Z" fill="#F5F5F5"/>
<path d="M312.85 540.654C449.487 540.654 560.253 534.187 560.253 526.21C560.253 518.232 449.487 511.765 312.85 511.765C176.212 511.765 65.446 518.232 65.446 526.21C65.446 534.187 176.212 540.654 312.85 540.654Z" fill="#F5F5F5"/>
<path d="M331.543 446.472C323.75 446.469 315.966 445.944 308.243 444.903L308.371 443.959C328.433 446.647 348.81 445.814 368.585 441.496L368.789 442.44C356.555 445.121 344.067 446.473 331.543 446.472ZM293.263 442.211C287.486 440.891 281.779 439.282 276.165 437.387L276.484 436.481C282.062 438.37 287.735 439.968 293.48 441.266L293.263 442.211ZM383.502 438.51L383.208 437.591C392.842 434.554 402.185 430.664 411.127 425.967L411.574 426.822C402.578 431.535 393.184 435.446 383.502 438.51ZM261.976 431.862C252.679 427.756 243.763 422.837 235.333 417.163L235.869 416.372C244.251 422.016 253.115 426.909 262.358 430.994L261.976 431.862ZM424.729 419.166L424.219 418.362C429.171 415.17 433.958 411.729 438.561 408.052L439.148 408.805C434.524 412.505 429.711 415.963 424.729 419.166ZM223.121 408.116C207.279 395.336 193.822 379.853 183.374 362.384L184.191 361.886C194.589 379.271 207.981 394.68 223.747 407.401L223.121 408.116ZM450.645 398.788L449.981 398.099C464.644 384.134 476.718 367.683 485.646 349.509L486.5 349.93C477.521 368.208 465.373 384.75 450.619 398.788H450.645ZM176.177 349.024C173.593 343.691 171.289 338.227 169.274 332.653L170.18 332.334C172.183 337.871 174.47 343.301 177.032 348.603L176.177 349.024ZM492.625 336.047L491.732 335.703C495.364 326.275 498.153 316.543 500.064 306.623L501.009 306.801C499.055 316.761 496.219 326.526 492.536 335.984L492.625 336.047ZM164.719 318.056C162.136 308.235 160.428 298.205 159.615 288.082L160.572 288.006C161.391 298.073 163.099 308.047 165.676 317.813L164.719 318.056ZM503.165 291.681L502.221 291.579C502.813 285.719 503.111 279.834 503.114 273.944V273.587H504.02V273.944C504.036 279.867 503.75 285.787 503.165 291.681ZM159.985 272.873H159.028C159.126 252.508 162.841 232.323 170.001 213.258L170.895 213.602C163.782 232.558 160.088 252.626 159.985 272.873ZM502.425 258.466C500.64 238.299 495.269 218.612 486.564 200.332L487.432 199.911C496.177 218.294 501.578 238.087 503.382 258.364L502.425 258.466ZM176.854 199.668L175.986 199.26C178.563 193.922 181.407 188.718 184.51 183.667L185.326 184.178C182.234 189.19 179.406 194.361 176.854 199.668ZM479.457 186.972C474.342 178.273 468.471 170.04 461.912 162.371L462.639 161.746C469.246 169.46 475.164 177.739 480.325 186.487L479.457 186.972ZM193.812 171.66L193.046 171.099C199.113 162.949 205.88 155.345 213.271 148.373L213.934 149.075C206.579 155.991 199.846 163.54 193.812 171.635V171.66ZM451.564 151.334C447.366 147.238 442.912 143.295 438.331 139.645L438.918 138.905C443.56 142.589 448.006 146.512 452.24 150.657L451.564 151.334ZM225.431 139.186L224.844 138.433C240.814 125.809 258.905 116.13 278.27 109.851L278.576 110.757C259.302 116.991 241.293 126.609 225.393 139.16L225.431 139.186ZM426.069 130.752C409.186 119.574 390.447 111.494 370.729 106.89L370.946 105.959C390.776 110.586 409.624 118.709 426.605 129.948L426.069 130.752ZM293.123 106.699L292.906 105.768C298.681 104.447 304.52 103.424 310.4 102.705L310.515 103.662C304.67 104.379 298.865 105.393 293.123 106.699ZM355.813 104.083C347.78 102.955 339.679 102.388 331.569 102.386C329.616 102.386 327.638 102.386 325.686 102.488V101.531C327.664 101.455 329.642 101.416 331.658 101.429C339.803 101.431 347.938 102.003 356.004 103.139L355.813 104.083Z" fill="#FFCD06"/>
<g opacity="0.4">
<path d="M331.543 446.472C323.75 446.469 315.966 445.944 308.243 444.903L308.371 443.959C328.433 446.647 348.81 445.814 368.585 441.496L368.789 442.44C356.555 445.121 344.067 446.473 331.543 446.472ZM293.263 442.211C287.486 440.891 281.779 439.282 276.165 437.387L276.484 436.481C282.062 438.37 287.735 439.968 293.48 441.266L293.263 442.211ZM383.502 438.51L383.208 437.591C392.842 434.554 402.185 430.664 411.127 425.967L411.574 426.822C402.578 431.535 393.184 435.446 383.502 438.51ZM261.976 431.862C252.679 427.756 243.763 422.837 235.333 417.163L235.869 416.372C244.251 422.016 253.115 426.909 262.358 430.994L261.976 431.862ZM424.729 419.166L424.219 418.362C429.171 415.17 433.958 411.729 438.561 408.052L439.148 408.805C434.524 412.505 429.711 415.963 424.729 419.166ZM223.121 408.116C207.279 395.336 193.822 379.853 183.374 362.384L184.191 361.886C194.589 379.271 207.981 394.68 223.747 407.401L223.121 408.116ZM450.645 398.788L449.981 398.099C464.644 384.134 476.718 367.683 485.646 349.509L486.5 349.93C477.521 368.208 465.373 384.75 450.619 398.788H450.645ZM176.177 349.024C173.593 343.691 171.289 338.227 169.274 332.653L170.18 332.334C172.183 337.871 174.47 343.301 177.032 348.603L176.177 349.024ZM492.625 336.047L491.732 335.703C495.364 326.275 498.153 316.543 500.064 306.623L501.009 306.801C499.055 316.761 496.219 326.526 492.536 335.984L492.625 336.047ZM164.719 318.056C162.136 308.235 160.428 298.205 159.615 288.082L160.572 288.006C161.391 298.073 163.099 308.047 165.676 317.813L164.719 318.056ZM503.165 291.681L502.221 291.579C502.813 285.719 503.111 279.834 503.114 273.944V273.587H504.02V273.944C504.036 279.867 503.75 285.787 503.165 291.681ZM159.985 272.873H159.028C159.126 252.508 162.841 232.323 170.001 213.258L170.895 213.602C163.782 232.558 160.088 252.626 159.985 272.873ZM502.425 258.466C500.64 238.299 495.269 218.612 486.564 200.332L487.432 199.911C496.177 218.294 501.578 238.087 503.382 258.364L502.425 258.466ZM176.854 199.668L175.986 199.26C178.563 193.922 181.407 188.718 184.51 183.667L185.326 184.178C182.234 189.19 179.406 194.361 176.854 199.668ZM479.457 186.972C474.342 178.273 468.471 170.04 461.912 162.371L462.639 161.746C469.246 169.46 475.164 177.739 480.325 186.487L479.457 186.972ZM193.812 171.66L193.046 171.099C199.113 162.949 205.88 155.345 213.271 148.373L213.934 149.075C206.579 155.991 199.846 163.54 193.812 171.635V171.66ZM451.564 151.334C447.366 147.238 442.912 143.295 438.331 139.645L438.918 138.905C443.56 142.589 448.006 146.512 452.24 150.657L451.564 151.334ZM225.431 139.186L224.844 138.433C240.814 125.809 258.905 116.13 278.27 109.851L278.576 110.757C259.302 116.991 241.293 126.609 225.393 139.16L225.431 139.186ZM426.069 130.752C409.186 119.574 390.447 111.494 370.729 106.89L370.946 105.959C390.776 110.586 409.624 118.709 426.605 129.948L426.069 130.752ZM293.123 106.699L292.906 105.768C298.681 104.447 304.52 103.424 310.4 102.705L310.515 103.662C304.67 104.379 298.865 105.393 293.123 106.699ZM355.813 104.083C347.78 102.955 339.679 102.388 331.569 102.386C329.616 102.386 327.638 102.386 325.686 102.488V101.531C327.664 101.455 329.642 101.416 331.658 101.429C339.803 101.431 347.938 102.003 356.004 103.139L355.813 104.083Z" fill="white"/>
</g>
<path d="M224.625 149.87L120.63 160.801L130.06 250.52L234.055 239.589L224.625 149.87Z" fill="#FFCD06"/>
<path opacity="0.6" d="M224.625 149.87L120.63 160.801L130.06 250.52L234.055 239.589L224.625 149.87Z" fill="white"/>
<path d="M222.871 133.077L118.875 144.007L120.64 160.796L224.635 149.866L222.871 133.077Z" fill="#FFCD06"/>
<path d="M134.159 136.8C134.047 136.092 133.668 135.455 133.099 135.019C132.531 134.583 131.817 134.381 131.105 134.457C130.392 134.532 129.736 134.878 129.271 135.423C128.807 135.969 128.569 136.672 128.608 137.387L129.782 148.463C129.82 148.826 129.929 149.179 130.103 149.5C130.277 149.822 130.512 150.106 130.796 150.336C131.08 150.567 131.406 150.739 131.757 150.844C132.107 150.948 132.474 150.982 132.838 150.944C133.202 150.907 133.554 150.798 133.876 150.624C134.197 150.45 134.481 150.214 134.712 149.93C134.942 149.647 135.115 149.32 135.219 148.97C135.323 148.62 135.358 148.252 135.32 147.888C135.256 147.097 134.235 137.578 134.159 136.8Z" fill="#FFCD06"/>
<path d="M154.166 134.695C154.089 133.96 153.722 133.287 153.148 132.823C152.574 132.358 151.838 132.141 151.104 132.219C150.37 132.297 149.696 132.663 149.232 133.238C148.768 133.812 148.551 134.547 148.629 135.282L149.79 146.357C149.808 146.737 149.903 147.109 150.07 147.45C150.236 147.792 150.471 148.096 150.759 148.344C151.047 148.591 151.383 148.778 151.746 148.891C152.108 149.005 152.491 149.043 152.869 149.004C153.247 148.965 153.613 148.849 153.944 148.664C154.276 148.479 154.567 148.227 154.798 147.926C155.029 147.624 155.197 147.279 155.29 146.91C155.383 146.542 155.4 146.158 155.34 145.783C155.251 144.992 154.256 135.486 154.166 134.695Z" fill="#FFCD06"/>
<path d="M174.187 132.589C174.148 132.226 174.038 131.873 173.864 131.552C173.689 131.231 173.453 130.947 173.168 130.717C172.884 130.487 172.557 130.316 172.206 130.212C171.856 130.109 171.488 130.075 171.124 130.114C170.761 130.152 170.408 130.262 170.087 130.437C169.766 130.612 169.482 130.848 169.252 131.132C168.788 131.707 168.571 132.442 168.649 133.176L169.81 144.265C169.849 144.628 169.958 144.981 170.133 145.302C170.308 145.623 170.544 145.907 170.829 146.137C171.113 146.366 171.44 146.538 171.79 146.642C172.141 146.745 172.509 146.779 172.872 146.74C173.236 146.702 173.588 146.592 173.91 146.417C174.231 146.242 174.514 146.006 174.744 145.722C174.974 145.437 175.146 145.11 175.249 144.76C175.353 144.409 175.386 144.041 175.348 143.678C175.271 142.912 174.263 133.38 174.187 132.589Z" fill="#FFCD06"/>
<path d="M194.207 130.484C194.096 129.776 193.716 129.139 193.148 128.702C192.58 128.266 191.866 128.065 191.153 128.141C190.441 128.216 189.785 128.562 189.32 129.107C188.855 129.653 188.618 130.355 188.657 131.071C188.759 132.053 189.729 141.177 189.831 142.159C189.869 142.523 189.979 142.875 190.154 143.196C190.328 143.518 190.565 143.801 190.849 144.031C191.133 144.261 191.46 144.433 191.811 144.536C192.162 144.64 192.529 144.673 192.893 144.635C193.257 144.596 193.609 144.486 193.93 144.312C194.251 144.137 194.535 143.9 194.765 143.616C194.995 143.332 195.166 143.005 195.27 142.654C195.374 142.304 195.407 141.936 195.368 141.572C195.228 140.794 194.284 131.275 194.207 130.484Z" fill="#FFCD06"/>
<path d="M214.215 128.378C214.176 128.015 214.067 127.662 213.892 127.341C213.717 127.02 213.481 126.736 213.196 126.506C212.912 126.277 212.585 126.105 212.235 126.001C211.884 125.898 211.516 125.864 211.153 125.903C210.789 125.942 210.436 126.051 210.115 126.226C209.794 126.401 209.51 126.637 209.281 126.921C209.051 127.206 208.879 127.533 208.776 127.883C208.672 128.234 208.639 128.602 208.677 128.965L209.838 140.054C209.95 140.761 210.329 141.399 210.898 141.835C211.466 142.271 212.18 142.472 212.892 142.397C213.605 142.322 214.261 141.976 214.726 141.43C215.19 140.885 215.428 140.182 215.389 139.467C215.3 138.688 214.368 129.17 214.215 128.378Z" fill="#FFCD06"/>
<g opacity="0.7">
<path d="M134.159 136.8C134.047 136.092 133.668 135.455 133.099 135.019C132.531 134.583 131.817 134.381 131.105 134.457C130.392 134.532 129.736 134.878 129.271 135.423C128.807 135.969 128.569 136.672 128.608 137.387L129.782 148.463C129.82 148.826 129.929 149.179 130.103 149.5C130.277 149.822 130.512 150.106 130.796 150.336C131.08 150.567 131.406 150.739 131.757 150.844C132.107 150.948 132.474 150.982 132.838 150.944C133.202 150.907 133.554 150.798 133.876 150.624C134.197 150.45 134.481 150.214 134.712 149.93C134.942 149.647 135.115 149.32 135.219 148.97C135.323 148.62 135.358 148.252 135.32 147.888C135.256 147.097 134.235 137.578 134.159 136.8Z" fill="white"/>
<path d="M154.166 134.695C154.089 133.96 153.722 133.287 153.148 132.823C152.574 132.358 151.838 132.141 151.104 132.219C150.37 132.297 149.696 132.663 149.232 133.238C148.768 133.812 148.551 134.547 148.629 135.282L149.79 146.357C149.808 146.737 149.903 147.109 150.07 147.45C150.236 147.792 150.471 148.096 150.759 148.344C151.047 148.591 151.383 148.778 151.746 148.891C152.108 149.005 152.491 149.043 152.869 149.004C153.247 148.965 153.613 148.849 153.944 148.664C154.276 148.479 154.567 148.227 154.798 147.926C155.029 147.624 155.197 147.279 155.29 146.91C155.383 146.542 155.4 146.158 155.34 145.783C155.251 144.992 154.256 135.486 154.166 134.695Z" fill="white"/>
<path d="M174.187 132.589C174.148 132.226 174.039 131.873 173.864 131.552C173.689 131.231 173.453 130.947 173.168 130.717C172.884 130.487 172.557 130.316 172.206 130.212C171.856 130.109 171.488 130.075 171.125 130.114C170.761 130.152 170.408 130.262 170.087 130.437C169.766 130.612 169.482 130.848 169.253 131.132C168.788 131.707 168.571 132.442 168.649 133.176L169.81 144.265C169.849 144.628 169.959 144.981 170.133 145.302C170.308 145.623 170.544 145.907 170.829 146.137C171.113 146.366 171.44 146.538 171.791 146.642C172.141 146.745 172.509 146.779 172.873 146.74C173.236 146.702 173.589 146.592 173.91 146.417C174.231 146.242 174.515 146.006 174.745 145.722C174.974 145.437 175.146 145.11 175.25 144.76C175.353 144.409 175.387 144.041 175.348 143.678C175.272 142.912 174.263 133.38 174.187 132.589Z" fill="white"/>
<path d="M194.207 130.484C194.096 129.776 193.716 129.139 193.148 128.702C192.58 128.266 191.866 128.065 191.153 128.141C190.441 128.216 189.785 128.562 189.32 129.107C188.855 129.653 188.618 130.355 188.657 131.071C188.759 132.053 189.729 141.177 189.831 142.159C189.869 142.523 189.979 142.875 190.154 143.196C190.328 143.518 190.565 143.801 190.849 144.031C191.133 144.261 191.46 144.433 191.811 144.536C192.162 144.64 192.529 144.673 192.893 144.635C193.257 144.596 193.609 144.486 193.93 144.312C194.251 144.137 194.535 143.9 194.765 143.616C194.995 143.332 195.166 143.005 195.27 142.654C195.374 142.304 195.407 141.936 195.368 141.572C195.228 140.794 194.284 131.275 194.207 130.484Z" fill="white"/>
<path d="M214.215 128.378C214.176 128.015 214.067 127.662 213.892 127.341C213.717 127.02 213.481 126.736 213.196 126.506C212.912 126.277 212.585 126.105 212.235 126.001C211.884 125.898 211.516 125.864 211.153 125.903C210.789 125.942 210.436 126.051 210.115 126.226C209.794 126.401 209.51 126.637 209.281 126.921C209.051 127.206 208.879 127.533 208.776 127.883C208.672 128.234 208.639 128.602 208.677 128.965L209.838 140.054C209.95 140.761 210.329 141.399 210.898 141.835C211.466 142.271 212.18 142.472 212.892 142.397C213.605 142.322 214.261 141.976 214.726 141.43C215.19 140.885 215.428 140.182 215.389 139.467C215.3 138.688 214.368 129.17 214.215 128.378Z" fill="white"/>
</g>
<path d="M236.838 236.749L132.844 247.684L120.633 160.802L224.627 149.866L236.838 236.749Z" fill="#FFCD06"/>
<path opacity="0.8" d="M236.838 236.749L132.844 247.684L120.633 160.802L224.627 149.866L236.838 236.749Z" fill="white"/>
<path d="M203.637 173.727L152.163 179.138L150.019 163.851L201.493 158.441L203.637 173.727Z" fill="#FFCD06"/>
<path opacity="0.6" d="M203.637 173.727L152.163 179.138L150.019 163.851L201.493 158.441L203.637 173.727Z" fill="white"/>
<path d="M146.268 199.809L132.525 201.251L130.599 187.546L144.354 186.105L146.268 199.809Z" fill="white"/>
<path d="M165.778 197.754L152.023 199.196L150.109 185.505L163.851 184.063L165.778 197.754Z" fill="white"/>
<path d="M148.871 218.285L135.116 219.727L133.202 206.036L146.944 204.581L148.871 218.285Z" fill="#FFCD06"/>
<path d="M151.461 236.762L137.719 238.204L135.792 224.5L149.535 223.058L151.461 236.762Z" fill="#FFCD06"/>
<path d="M168.381 216.231L154.626 217.673L152.699 203.981L166.454 202.539L168.381 216.231Z" fill="#FFCD06"/>
<path opacity="0.2" d="M168.381 216.231L154.626 217.673L152.699 203.981L166.454 202.539L168.381 216.231Z" fill="white"/>
<path d="M187.878 214.177L174.136 215.631L172.209 201.927L185.951 200.485L187.878 214.177Z" fill="#FFCD06"/>
<path opacity="0.2" d="M187.878 214.177L174.136 215.631L172.209 201.927L185.951 200.485L187.878 214.177Z" fill="white"/>
<path d="M207.388 212.135L193.633 213.577L191.706 199.885L205.462 198.431L207.388 212.135Z" fill="#FFCD06"/>
<path opacity="0.2" d="M207.388 212.135L193.633 213.577L191.706 199.885L205.462 198.431L207.388 212.135Z" fill="white"/>
<path d="M226.886 210.081L213.143 211.523L211.216 197.831L224.959 196.389L226.886 210.081Z" fill="#FFCD06"/>
<path opacity="0.2" d="M226.886 210.081L213.143 211.523L211.216 197.831L224.959 196.389L226.886 210.081Z" fill="white"/>
<path d="M170.971 234.707L157.229 236.149L155.302 222.458L169.045 221.016L170.971 234.707Z" fill="#FFCD06"/>
<path opacity="0.2" d="M170.971 234.707L157.229 236.149L155.302 222.458L169.045 221.016L170.971 234.707Z" fill="white"/>
<path d="M190.481 232.666L176.726 234.108L174.799 220.404L188.555 218.962L190.481 232.666Z" fill="#FFCD06"/>
<path opacity="0.2" d="M190.481 232.666L176.726 234.108L174.799 220.404L188.555 218.962L190.481 232.666Z" fill="white"/>
<path d="M209.979 230.611L196.236 232.053L194.309 218.362L208.052 216.907L209.979 230.611Z" fill="#FFCD06"/>
<path opacity="0.2" d="M209.979 230.611L196.236 232.053L194.309 218.362L208.052 216.907L209.979 230.611Z" fill="white"/>
<path d="M185.288 195.7L171.533 197.155L169.606 183.451L183.361 182.009L185.288 195.7Z" fill="#FFCD06"/>
<path opacity="0.2" d="M185.288 195.7L171.533 197.155L169.606 183.451L183.361 182.009L185.288 195.7Z" fill="white"/>
<path d="M204.785 193.658L191.043 195.1L189.116 181.396L202.858 179.954L204.785 193.658Z" fill="#FFCD06"/>
<path opacity="0.2" d="M204.785 193.658L191.043 195.1L189.116 181.396L202.858 179.954L204.785 193.658Z" fill="white"/>
<path d="M224.295 191.604L210.54 193.046L208.613 179.355L222.369 177.913L224.295 191.604Z" fill="#FFCD06"/>
<path opacity="0.2" d="M224.295 191.604L210.54 193.046L208.613 179.355L222.369 177.913L224.295 191.604Z" fill="white"/>
<path d="M229.489 228.557L215.733 229.999L213.807 216.307L227.562 214.866L229.489 228.557Z" fill="white"/>
<path d="M265.548 100.804C265.692 101.45 265.579 102.126 265.234 102.69C264.889 103.254 264.338 103.662 263.698 103.828C263.053 103.972 262.377 103.859 261.812 103.514C261.248 103.169 260.84 102.618 260.674 101.978L259.921 98.8517L247.161 101.914C247.544 103.484 247.85 104.785 247.914 105.04C248.069 105.383 248.146 105.755 248.141 106.13C248.135 106.506 248.046 106.876 247.881 107.213C247.716 107.551 247.479 107.847 247.186 108.082C246.893 108.318 246.552 108.485 246.186 108.573C245.821 108.661 245.441 108.667 245.073 108.591C244.705 108.515 244.359 108.359 244.058 108.134C243.758 107.909 243.511 107.62 243.334 107.288C243.158 106.956 243.058 106.589 243.04 106.214L242.287 103.088L229.527 106.15C229.91 107.72 230.216 109.021 230.28 109.277C230.308 109.87 230.129 110.454 229.773 110.93C229.417 111.405 228.906 111.741 228.328 111.88C227.751 112.019 227.143 111.952 226.61 111.691C226.076 111.43 225.65 110.992 225.405 110.451L224.653 107.324L211.893 110.387C212.275 111.956 212.582 113.258 212.646 113.513C212.8 113.855 212.878 114.227 212.872 114.603C212.866 114.979 212.778 115.348 212.613 115.686C212.448 116.023 212.21 116.32 211.917 116.555C211.624 116.79 211.283 116.958 210.918 117.046C210.553 117.134 210.172 117.14 209.805 117.064C209.437 116.988 209.09 116.832 208.79 116.607C208.489 116.381 208.242 116.092 208.066 115.76C207.89 115.429 207.789 115.062 207.771 114.687L207.018 111.561L194.258 114.623C194.628 116.193 194.947 117.494 195.011 117.749C195.048 118.348 194.872 118.94 194.515 119.422C194.158 119.905 193.643 120.246 193.06 120.386C192.477 120.526 191.863 120.456 191.326 120.189C190.789 119.921 190.364 119.473 190.124 118.923L189.384 115.797L181.294 117.736L201.34 201.098L292.842 179.099L272.898 95.7L264.808 97.6395C265.178 99.2217 265.497 100.523 265.548 100.804Z" fill="#FFCD06"/>
<path opacity="0.8" d="M265.548 100.804C265.692 101.45 265.579 102.126 265.234 102.69C264.889 103.254 264.338 103.662 263.698 103.828C263.053 103.972 262.377 103.859 261.812 103.514C261.248 103.169 260.84 102.618 260.674 101.978L259.921 98.8517L247.161 101.914C247.544 103.484 247.85 104.785 247.914 105.04C248.069 105.383 248.146 105.755 248.141 106.13C248.135 106.506 248.046 106.876 247.881 107.213C247.716 107.551 247.479 107.847 247.186 108.082C246.893 108.318 246.552 108.485 246.186 108.573C245.821 108.661 245.441 108.667 245.073 108.591C244.705 108.515 244.359 108.359 244.058 108.134C243.758 107.909 243.511 107.62 243.334 107.288C243.158 106.956 243.058 106.589 243.04 106.214L242.287 103.088L229.527 106.15C229.91 107.72 230.216 109.021 230.28 109.277C230.308 109.87 230.129 110.454 229.773 110.93C229.417 111.405 228.906 111.741 228.328 111.88C227.751 112.019 227.143 111.952 226.61 111.691C226.076 111.43 225.65 110.992 225.405 110.451L224.653 107.324L211.893 110.387C212.275 111.956 212.582 113.258 212.646 113.513C212.8 113.855 212.878 114.227 212.872 114.603C212.866 114.979 212.778 115.348 212.613 115.686C212.448 116.023 212.21 116.32 211.917 116.555C211.624 116.79 211.283 116.958 210.918 117.046C210.553 117.134 210.172 117.14 209.805 117.064C209.437 116.988 209.09 116.832 208.79 116.607C208.489 116.381 208.242 116.092 208.066 115.76C207.89 115.429 207.789 115.062 207.771 114.687L207.018 111.561L194.258 114.623C194.628 116.193 194.947 117.494 195.011 117.749C195.048 118.348 194.872 118.94 194.515 119.422C194.158 119.905 193.643 120.246 193.06 120.386C192.477 120.526 191.863 120.456 191.326 120.189C190.789 119.921 190.364 119.473 190.124 118.923L189.384 115.797L181.294 117.736L201.34 201.098L292.842 179.099L272.898 95.7L264.808 97.6395C265.178 99.2217 265.497 100.523 265.548 100.804Z" fill="white"/>
<path d="M254.668 112.775L209.372 123.667L212.617 137.165L257.913 126.274L254.668 112.775Z" fill="#FFCD06"/>
<path opacity="0.6" d="M254.668 112.775L209.372 123.667L212.617 137.165L257.913 126.274L254.668 112.775Z" fill="white"/>
<path d="M206.283 144.347L194.187 147.256L197.096 159.352L209.192 156.443L206.283 144.347Z" fill="white"/>
<path d="M223.449 140.219L211.352 143.128L214.261 155.224L226.357 152.316L223.449 140.219Z" fill="#FFCD06"/>
<path d="M240.61 136.092L228.514 139L231.423 151.097L243.519 148.188L240.61 136.092Z" fill="#FFCD06"/>
<path d="M257.762 131.964L245.666 134.873L248.575 146.969L260.671 144.061L257.762 131.964Z" fill="#FFCD06"/>
<path d="M274.915 127.852L262.819 130.761L265.727 142.857L277.824 139.948L274.915 127.852Z" fill="#FFCD06"/>
<path d="M210.194 160.664L198.098 163.573L201.007 175.669L213.103 172.761L210.194 160.664Z" fill="#FFCD06"/>
<path d="M227.359 156.549L215.263 159.458L218.172 171.554L230.268 168.646L227.359 156.549Z" fill="#FFCD06"/>
<path d="M244.521 152.409L232.425 155.318L235.334 167.414L247.43 164.505L244.521 152.409Z" fill="#FFCD06"/>
<path d="M261.686 148.294L249.59 151.203L252.499 163.299L264.595 160.39L261.686 148.294Z" fill="#FFCD06"/>
<path d="M278.848 144.154L266.752 147.063L269.66 159.159L281.757 156.25L278.848 144.154Z" fill="#FFCD06"/>
<path d="M214.131 176.979L202.034 179.887L204.943 191.983L217.039 189.075L214.131 176.979Z" fill="#FFCD06"/>
<path d="M231.295 172.864L219.199 175.772L222.108 187.868L234.204 184.96L231.295 172.864Z" fill="#FFCD06"/>
<path d="M248.445 168.736L236.349 171.645L239.257 183.741L251.353 180.833L248.445 168.736Z" fill="#FFCD06"/>
<path opacity="0.2" d="M223.449 140.219L211.352 143.128L214.261 155.224L226.357 152.316L223.449 140.219Z" fill="white"/>
<path opacity="0.2" d="M240.61 136.092L228.514 139L231.423 151.097L243.519 148.188L240.61 136.092Z" fill="white"/>
<path opacity="0.2" d="M257.762 131.964L245.666 134.873L248.575 146.969L260.671 144.061L257.762 131.964Z" fill="white"/>
<path opacity="0.2" d="M274.915 127.852L262.819 130.761L265.727 142.857L277.824 139.948L274.915 127.852Z" fill="white"/>
<path opacity="0.2" d="M227.359 156.549L215.263 159.458L218.172 171.554L230.268 168.646L227.359 156.549Z" fill="white"/>
<path opacity="0.2" d="M244.521 152.409L232.425 155.318L235.334 167.414L247.43 164.505L244.521 152.409Z" fill="white"/>
<path opacity="0.2" d="M261.686 148.294L249.59 151.203L252.499 163.299L264.595 160.39L261.686 148.294Z" fill="white"/>
<path opacity="0.2" d="M278.848 144.154L266.752 147.063L269.66 159.159L281.757 156.25L278.848 144.154Z" fill="white"/>
<path opacity="0.2" d="M231.295 172.864L219.199 175.772L222.108 187.868L234.204 184.96L231.295 172.864Z" fill="white"/>
<path opacity="0.2" d="M248.445 168.736L236.349 171.645L239.257 183.741L251.353 180.833L248.445 168.736Z" fill="white"/>
<path d="M265.61 164.609L253.513 167.517L256.422 179.613L268.518 176.705L265.61 164.609Z" fill="white"/>
<path d="M282.772 160.468L270.676 163.377L273.584 175.473L285.68 172.565L282.772 160.468Z" fill="white"/>
<path d="M181.396 117.711L199.133 204.326L292.944 179.074L201.442 201.085L181.396 117.711Z" fill="#FFCD06"/>
<path opacity="0.5" d="M181.396 117.711L199.133 204.326L292.944 179.074L201.442 201.085L181.396 117.711Z" fill="white"/>
<path d="M265.076 67.2707C265.32 67.5536 265.5 67.8866 265.601 68.2462C265.702 68.6058 265.723 68.9833 265.663 69.352C265.602 69.7207 265.461 70.0716 265.25 70.3799C265.039 70.6883 264.763 70.9465 264.441 71.1363C264.119 71.3262 263.76 71.4431 263.388 71.4787C263.016 71.5143 262.641 71.4679 262.289 71.3426C261.937 71.2173 261.617 71.0162 261.351 70.7536C261.085 70.491 260.88 70.1732 260.751 69.8227L259.117 67.0538L247.825 73.6762L249.445 76.4452C249.653 77.0061 249.656 77.622 249.456 78.1853C249.255 78.7486 248.863 79.2237 248.348 79.5275C247.833 79.8314 247.228 79.9447 246.638 79.8478C246.048 79.7509 245.51 79.4498 245.12 78.9972L243.499 76.2282L232.232 82.8252C233.061 84.2288 233.725 85.3772 233.865 85.5941C234.073 86.155 234.076 86.7709 233.876 87.3342C233.675 87.8976 233.283 88.3726 232.768 88.6765C232.253 88.9803 231.648 89.0937 231.058 88.9967C230.468 88.8998 229.93 88.5987 229.54 88.1461L227.906 85.3772L216.614 92.0124L218.196 94.7685C218.44 95.0514 218.619 95.3844 218.721 95.744C218.822 96.1036 218.843 96.4811 218.782 96.8498C218.722 97.2185 218.581 97.5694 218.37 97.8777C218.159 98.1861 217.883 98.4443 217.561 98.6341C217.239 98.824 216.88 98.9409 216.508 98.9765C216.136 99.0121 215.761 98.9657 215.409 98.8404C215.056 98.7151 214.736 98.514 214.471 98.2514C214.205 97.9888 214 97.671 213.87 97.3205L212.25 94.5388L200.957 101.174L202.578 103.943C202.785 104.504 202.789 105.12 202.588 105.683C202.388 106.246 201.996 106.721 201.481 107.025C200.966 107.329 200.36 107.443 199.77 107.346C199.18 107.249 198.643 106.948 198.252 106.495L196.632 103.726L189.448 107.937L232.832 181.945L314.011 134.325L270.627 60.3165L263.443 64.5273L265.076 67.2707Z" fill="#FFCD06"/>
<path opacity="0.8" d="M265.076 67.2707C265.32 67.5536 265.5 67.8866 265.601 68.2462C265.702 68.6058 265.723 68.9833 265.663 69.352C265.602 69.7207 265.461 70.0716 265.25 70.3799C265.039 70.6883 264.763 70.9465 264.441 71.1363C264.119 71.3262 263.76 71.4431 263.388 71.4787C263.016 71.5143 262.641 71.4679 262.289 71.3426C261.937 71.2173 261.617 71.0162 261.351 70.7536C261.085 70.491 260.88 70.1732 260.751 69.8227L259.117 67.0538L247.825 73.6762L249.445 76.4452C249.653 77.0061 249.656 77.622 249.456 78.1853C249.255 78.7486 248.863 79.2237 248.348 79.5275C247.833 79.8314 247.228 79.9447 246.638 79.8478C246.048 79.7509 245.51 79.4498 245.12 78.9972L243.499 76.2282L232.232 82.8252C233.061 84.2288 233.725 85.3772 233.865 85.5941C234.073 86.155 234.076 86.7709 233.876 87.3342C233.675 87.8976 233.283 88.3726 232.768 88.6765C232.253 88.9803 231.648 89.0937 231.058 88.9967C230.468 88.8998 229.93 88.5987 229.54 88.1461L227.906 85.3772L216.614 92.0124L218.196 94.7685C218.44 95.0514 218.619 95.3844 218.721 95.744C218.822 96.1036 218.843 96.4811 218.782 96.8498C218.722 97.2185 218.581 97.5694 218.37 97.8777C218.159 98.1861 217.883 98.4443 217.561 98.6341C217.239 98.824 216.88 98.9409 216.508 98.9765C216.136 99.0121 215.761 98.9657 215.409 98.8404C215.056 98.7151 214.736 98.514 214.471 98.2514C214.205 97.9888 214 97.671 213.87 97.3205L212.25 94.5388L200.957 101.174L202.578 103.943C202.785 104.504 202.789 105.12 202.588 105.683C202.388 106.246 201.996 106.721 201.481 107.025C200.966 107.329 200.36 107.443 199.77 107.346C199.18 107.249 198.643 106.948 198.252 106.495L196.632 103.726L189.448 107.937L232.832 181.945L314.011 134.325L270.627 60.3165L263.443 64.5273L265.076 67.2707Z" fill="white"/>
<path d="M258.131 81.8765L217.949 105.451L224.981 117.436L265.162 93.8616L258.131 81.8765Z" fill="#FFCD06"/>
<path opacity="0.6" d="M258.131 81.8765L217.949 105.451L224.981 117.436L265.162 93.8616L258.131 81.8765Z" fill="white"/>
<path d="M220.934 124.93L210.234 131.275L216.579 141.975L227.279 135.63L220.934 124.93Z" fill="white"/>
<path d="M236.092 115.955L225.393 122.3L231.738 132.999L242.437 126.654L236.092 115.955Z" fill="white"/>
<path d="M251.442 108.283L240.711 114.578L247.007 125.309L257.737 119.013L251.442 108.283Z" fill="#FFCD06"/>
<path d="M266.661 99.3451L255.931 105.641L262.226 116.371L272.957 110.076L266.661 99.3451Z" fill="#FFCD06"/>
<path d="M281.541 89.0464L270.842 95.3914L277.186 106.091L287.886 99.7457L281.541 89.0464Z" fill="#FFCD06"/>
<path d="M229.46 139.338L218.761 145.683L225.106 156.382L235.805 150.037L229.46 139.338Z" fill="#FFCD06"/>
<path d="M244.711 131.679L233.98 137.974L240.276 148.705L251.007 142.409L244.711 131.679Z" fill="#FFCD06"/>
<path d="M259.77 121.403L249.07 127.748L255.415 138.448L266.114 132.103L259.77 121.403Z" fill="#FFCD06"/>
<path d="M275.157 113.827L264.426 120.122L270.722 130.853L281.452 124.557L275.157 113.827Z" fill="#FFCD06"/>
<path d="M290.376 104.889L279.646 111.184L285.941 121.915L296.672 115.619L290.376 104.889Z" fill="#FFCD06"/>
<path d="M237.992 153.737L227.292 160.081L233.637 170.781L244.337 164.436L237.992 153.737Z" fill="#FFCD06"/>
<path d="M253.138 144.773L242.438 151.118L248.783 161.818L259.483 155.473L253.138 144.773Z" fill="#FFCD06"/>
<path d="M268.296 135.798L257.597 142.143L263.942 152.842L274.641 146.497L268.296 135.798Z" fill="#FFCD06"/>
<path opacity="0.2" d="M251.442 108.283L240.711 114.578L247.007 125.309L257.737 119.013L251.442 108.283Z" fill="white"/>
<path opacity="0.2" d="M266.661 99.3451L255.931 105.641L262.226 116.371L272.957 110.076L266.661 99.3451Z" fill="white"/>
<path opacity="0.2" d="M281.541 89.0464L270.842 95.3914L277.186 106.091L287.886 99.7457L281.541 89.0464Z" fill="white"/>
<path opacity="0.2" d="M244.711 131.679L233.98 137.974L240.276 148.705L251.007 142.409L244.711 131.679Z" fill="white"/>
<path opacity="0.2" d="M259.77 121.403L249.07 127.748L255.415 138.448L266.114 132.103L259.77 121.403Z" fill="white"/>
<path opacity="0.2" d="M275.157 113.827L264.426 120.122L270.722 130.853L281.452 124.557L275.157 113.827Z" fill="white"/>
<path opacity="0.2" d="M290.376 104.889L279.646 111.184L285.941 121.915L296.672 115.619L290.376 104.889Z" fill="white"/>
<path opacity="0.2" d="M253.138 144.773L242.438 151.118L248.783 161.818L259.483 155.473L253.138 144.773Z" fill="white"/>
<path opacity="0.2" d="M268.296 135.798L257.597 142.143L263.942 152.842L274.641 146.497L268.296 135.798Z" fill="white"/>
<path d="M283.442 126.835L272.743 133.18L279.088 143.879L289.787 137.534L283.442 126.835Z" fill="white"/>
<path d="M298.878 119.36L288.147 125.655L294.443 136.386L305.173 130.09L298.878 119.36Z" fill="white"/>
<path d="M189.358 107.962L231.466 185.696L313.909 134.299L232.742 181.919L189.358 107.962Z" fill="#FFCD06"/>
<path opacity="0.5" d="M189.358 107.962L231.466 185.696L313.909 134.299L232.742 181.919L189.358 107.962Z" fill="white"/>
<path d="M484.98 276.453L523.524 282.276C529.845 283.231 535.528 286.657 539.322 291.802C543.117 296.947 544.712 303.388 543.757 309.709L537.939 348.228C536.984 354.546 533.559 360.226 528.417 364.018C523.275 367.811 516.837 369.405 510.52 368.451L471.962 362.626C465.645 361.672 459.965 358.247 456.173 353.105C452.38 347.963 450.786 341.525 451.74 335.208L457.559 296.688C458.03 293.559 459.113 290.553 460.746 287.842C462.379 285.131 464.53 282.769 467.077 280.89C469.623 279.01 472.515 277.651 475.587 276.89C478.659 276.129 481.85 275.981 484.98 276.453Z" fill="#FFCD06"/>
<path opacity="0.6" d="M484.98 276.453L523.524 282.276C529.845 283.231 535.528 286.657 539.322 291.802C543.117 296.947 544.712 303.388 543.757 309.709L537.939 348.228C536.984 354.546 533.559 360.226 528.417 364.018C523.275 367.811 516.837 369.405 510.52 368.451L471.962 362.626C465.645 361.672 459.965 358.247 456.173 353.105C452.38 347.963 450.786 341.525 451.74 335.208L457.559 296.688C458.03 293.559 459.113 290.553 460.746 287.842C462.379 285.131 464.53 282.769 467.077 280.89C469.623 279.01 472.515 277.651 475.587 276.89C478.659 276.129 481.85 275.981 484.98 276.453Z" fill="white"/>
<path d="M472.949 308.562C472.949 308.562 467.756 300.294 473.039 295.317L476.994 297.933C476.994 297.933 473.166 302.961 475.412 308.077L472.949 308.562Z" fill="#FFCD06"/>
<path d="M481.894 302.693C478.872 303.303 476.036 304.614 473.613 306.521C470.647 305.688 467.526 305.561 464.502 306.151C452.865 308.435 445.464 320.659 447.978 333.457C450.492 346.255 462.014 354.766 473.613 352.47C476.633 351.855 479.469 350.544 481.894 348.642C484.863 349.463 487.981 349.586 491.005 348.999C502.642 346.715 510.043 334.491 507.529 321.692C505.015 308.894 493.544 300.396 481.894 302.693Z" fill="#FFCD06"/>
<path opacity="0.1" d="M481.894 302.693C478.872 303.303 476.036 304.614 473.613 306.521C470.647 305.688 467.526 305.561 464.502 306.151C452.865 308.435 445.464 320.659 447.978 333.457C450.492 346.255 462.014 354.766 473.613 352.47C476.633 351.855 479.469 350.544 481.894 348.642C484.863 349.463 487.981 349.586 491.005 348.999C502.642 346.715 510.043 334.491 507.529 321.692C505.015 308.894 493.544 300.396 481.894 302.693Z" fill="white"/>
<path d="M481.894 302.693C478.872 303.303 476.036 304.614 473.613 306.521L481.894 348.692C484.862 349.514 487.981 349.637 491.005 349.05C502.642 346.766 510.043 334.542 507.529 321.743C505.015 308.945 493.544 300.396 481.894 302.693Z" fill="#FFCD06"/>
<path opacity="0.3" d="M481.894 302.693C478.872 303.303 476.036 304.614 473.613 306.521L481.894 348.692C484.862 349.514 487.981 349.637 491.005 349.05C502.642 346.766 510.043 334.542 507.529 321.743C505.015 308.945 493.544 300.396 481.894 302.693Z" fill="white"/>
<path d="M466.697 322.637L468.611 323.542L472.656 322.751L465.179 314.904L461.223 324.997L465.268 324.206L466.697 322.637Z" fill="white"/>
<path d="M487.011 318.643L488.925 319.561L492.97 318.757L485.492 310.923L481.537 321.003L485.582 320.212L487.011 318.643Z" fill="white"/>
<path d="M475.335 333.38V336.149L469.274 335.55L470.168 333.495C467.667 333.428 465.179 333.112 462.741 332.551C462.741 332.551 467.845 343.512 480.478 341.215C482.378 340.88 484.207 340.224 485.888 339.276L483.527 336.724L488.631 332.679L490.162 335.843C492.436 333.128 493.93 329.847 494.488 326.35C488.907 330.476 482.26 332.916 475.335 333.38Z" fill="white"/>
<path d="M513.513 301.595L507.925 305.5L518.987 306.776C519.482 306.833 519.983 306.778 520.454 306.614C520.924 306.45 521.351 306.182 521.703 305.83C522.056 305.477 522.324 305.05 522.487 304.58C522.651 304.11 522.707 303.608 522.65 303.114L521.374 292.051L517.469 297.64L514.305 298.482L513.513 301.595Z" fill="#FFCD06"/>
<path d="M535.512 323.606L531.62 329.208L530.344 318.132C530.292 317.639 530.351 317.139 530.516 316.671C530.682 316.203 530.95 315.778 531.301 315.427C531.652 315.076 532.077 314.808 532.545 314.642C533.013 314.477 533.512 314.418 534.006 314.47L545.082 315.746L539.493 319.638L538.651 322.815L535.512 323.606Z" fill="#FFCD06"/>
<path d="M526.516 317.405C530.279 317.405 533.33 314.354 533.33 310.591C533.33 306.828 530.279 303.777 526.516 303.777C522.753 303.777 519.702 306.828 519.702 310.591C519.702 314.354 522.753 317.405 526.516 317.405Z" fill="#FFCD06"/>
<g opacity="0.2">
<path d="M513.513 301.595L507.925 305.5L518.987 306.776C519.482 306.833 519.983 306.778 520.454 306.614C520.924 306.45 521.351 306.182 521.703 305.83C522.056 305.477 522.324 305.05 522.487 304.58C522.651 304.11 522.707 303.608 522.65 303.114L521.374 292.051L517.469 297.64L514.305 298.482L513.513 301.595Z" fill="white"/>
<path d="M535.512 323.606L531.62 329.208L530.344 318.132C530.292 317.639 530.351 317.139 530.516 316.671C530.682 316.203 530.95 315.778 531.301 315.427C531.652 315.076 532.077 314.808 532.545 314.642C533.013 314.477 533.512 314.418 534.006 314.47L545.082 315.746L539.493 319.638L538.651 322.815L535.512 323.606Z" fill="white"/>
<path d="M526.516 317.405C530.279 317.405 533.33 314.354 533.33 310.591C533.33 306.828 530.279 303.777 526.516 303.777C522.753 303.777 519.702 306.828 519.702 310.591C519.702 314.354 522.753 317.405 526.516 317.405Z" fill="white"/>
</g>
<g opacity="0.7">
<path d="M528.557 304.096C527.628 303.806 526.647 303.718 525.68 303.839C524.714 303.96 523.785 304.286 522.955 304.796C522.126 305.307 521.415 305.989 520.872 306.797C520.328 307.605 519.964 308.52 519.804 309.481L528.557 304.096Z" fill="white"/>
<path d="M521.705 315.414C522.305 316.017 523.016 316.498 523.798 316.831L533.317 310.987C533.376 309.934 533.193 308.882 532.781 307.911L521.297 314.968C521.424 315.172 521.565 315.274 521.705 315.414Z" fill="white"/>
</g>
<path d="M510.617 340.692L509.634 346.242L516.831 340.488C517.153 340.231 517.412 339.905 517.591 339.533C517.77 339.162 517.862 338.756 517.862 338.344C517.862 337.932 517.77 337.526 517.591 337.155C517.412 336.783 517.153 336.457 516.831 336.2L509.634 330.484L510.617 336.034L509.264 338.382L510.617 340.692Z" fill="#FFCD06"/>
<path d="M536.379 340.692L537.362 346.243L530.165 340.488C529.845 340.229 529.588 339.903 529.41 339.532C529.233 339.161 529.141 338.755 529.141 338.344C529.141 337.933 529.233 337.527 529.41 337.156C529.588 336.785 529.845 336.459 530.165 336.2L537.362 330.446L536.379 335.996L537.745 338.344L536.379 340.692Z" fill="#FFCD06"/>
<path d="M529.144 338.395C529.144 339.511 528.814 340.601 528.194 341.529C527.574 342.456 526.693 343.179 525.663 343.606C524.632 344.033 523.498 344.144 522.404 343.927C521.31 343.709 520.305 343.172 519.516 342.383C518.728 341.594 518.19 340.589 517.973 339.495C517.755 338.401 517.867 337.267 518.294 336.237C518.721 335.206 519.444 334.325 520.371 333.706C521.299 333.086 522.389 332.755 523.504 332.755C525 332.755 526.435 333.349 527.492 334.407C528.55 335.465 529.144 336.899 529.144 338.395Z" fill="#FFCD06"/>
<g opacity="0.9">
<path d="M510.617 340.692L509.634 346.243L516.831 340.488C517.153 340.231 517.412 339.905 517.591 339.534C517.77 339.163 517.862 338.756 517.862 338.344C517.862 337.932 517.77 337.526 517.591 337.155C517.412 336.784 517.153 336.457 516.831 336.201L509.634 330.484L510.617 336.035L509.264 338.382L510.617 340.692Z" fill="white"/>
<path d="M536.379 340.692L537.362 346.243L530.165 340.488C529.845 340.229 529.588 339.903 529.41 339.532C529.233 339.161 529.141 338.755 529.141 338.344C529.141 337.933 529.233 337.527 529.41 337.156C529.588 336.785 529.845 336.459 530.165 336.2L537.362 330.446L536.379 335.996L537.745 338.344L536.379 340.692Z" fill="white"/>
<path d="M529.144 338.395C529.144 339.511 528.814 340.601 528.194 341.529C527.574 342.456 526.693 343.179 525.663 343.606C524.632 344.033 523.498 344.144 522.404 343.927C521.31 343.709 520.305 343.172 519.516 342.383C518.728 341.594 518.19 340.589 517.973 339.495C517.755 338.401 517.867 337.267 518.294 336.237C518.721 335.206 519.444 334.325 520.371 333.706C521.299 333.086 522.389 332.755 523.504 332.755C525 332.755 526.435 333.349 527.492 334.407C528.55 335.465 529.144 336.899 529.144 338.395Z" fill="white"/>
</g>
<path d="M520.889 333.406C519.977 333.882 519.213 334.598 518.679 335.478C518.146 336.358 517.864 337.367 517.865 338.395C517.867 339.57 518.233 340.715 518.911 341.674L520.889 333.406Z" fill="#FFCD06"/>
<path d="M523.504 344.035C524.208 344.036 524.906 343.902 525.559 343.64L527.702 334.644C527.123 333.99 526.397 333.483 525.584 333.164L523.032 344.01L523.504 344.035Z" fill="#FFCD06"/>
<path d="M497.607 97.4678L437.833 109.662C424.796 112.321 416.384 125.045 419.044 138.082L431.237 197.856C433.897 210.893 446.621 219.305 459.657 216.646L519.432 204.452C532.469 201.792 540.881 189.068 538.221 176.032L526.028 116.257C523.368 103.221 510.644 94.8083 497.607 97.4678Z" fill="#FFCD06"/>
<path opacity="0.5" d="M497.607 97.4678L437.833 109.662C424.796 112.321 416.384 125.045 419.044 138.082L431.237 197.856C433.897 210.893 446.621 219.305 459.657 216.646L519.432 204.452C532.469 201.792 540.881 189.068 538.221 176.032L526.028 116.257C523.368 103.221 510.644 94.8083 497.607 97.4678Z" fill="white"/>
<path d="M514.356 122.904L506.7 123.938L510.795 118.553C510.902 118.413 510.949 118.236 510.925 118.061C510.901 117.886 510.808 117.728 510.668 117.622C510.527 117.515 510.35 117.469 510.176 117.493C510.001 117.516 509.843 117.609 509.736 117.749C508.103 119.893 506.457 122.037 504.824 124.129L497.474 125.125L497.831 124.576L500.626 120.914L504.811 115.427C504.918 115.287 504.964 115.109 504.94 114.935C504.916 114.76 504.824 114.602 504.683 114.495C504.543 114.389 504.366 114.342 504.191 114.366C504.017 114.39 503.859 114.483 503.752 114.623L495.547 125.38L492.51 125.788L492.102 122.751L500.294 111.995C500.402 111.854 500.45 111.676 500.428 111.5C500.405 111.325 500.313 111.165 500.173 111.057C500.032 110.948 499.855 110.9 499.679 110.923C499.503 110.946 499.343 111.037 499.235 111.178C497.959 112.913 496.594 114.636 495.279 116.358L492.268 120.327L491.834 120.824L490.89 113.564L495.802 107.184C495.911 107.044 495.959 106.866 495.936 106.69C495.913 106.514 495.822 106.354 495.681 106.246C495.541 106.138 495.363 106.09 495.187 106.113C495.011 106.135 494.852 106.227 494.743 106.367L490.647 111.752L489.614 104.096C489.559 103.958 489.459 103.843 489.331 103.769C489.202 103.694 489.053 103.665 488.906 103.686C488.759 103.706 488.623 103.775 488.52 103.882C488.417 103.989 488.353 104.127 488.338 104.275L489.371 111.931L483.987 107.835C483.846 107.728 483.669 107.682 483.495 107.706C483.32 107.73 483.162 107.822 483.055 107.962C482.949 108.103 482.902 108.28 482.926 108.455C482.95 108.629 483.042 108.787 483.183 108.894L489.627 113.806L490.622 121.156L490.073 120.786L486.411 118.004L480.924 113.819C480.784 113.713 480.607 113.666 480.432 113.69C480.257 113.714 480.099 113.806 479.993 113.947C479.886 114.087 479.84 114.264 479.864 114.439C479.888 114.614 479.98 114.772 480.12 114.878L490.877 123.083C491.017 124.091 491.145 125.112 491.285 126.12L488.249 126.528L477.492 118.336C477.351 118.228 477.174 118.18 476.998 118.203C476.822 118.225 476.662 118.317 476.554 118.457C476.446 118.598 476.398 118.776 476.42 118.951C476.443 119.127 476.535 119.287 476.675 119.395L481.856 123.338L485.773 126.324L486.271 126.758L478.921 127.74L472.477 122.841C472.337 122.732 472.159 122.684 471.983 122.707C471.807 122.73 471.648 122.821 471.539 122.962C471.431 123.102 471.383 123.28 471.406 123.456C471.428 123.632 471.52 123.791 471.661 123.9L477.045 127.996L469.389 129.029C469.252 129.084 469.136 129.184 469.062 129.312C468.987 129.441 468.958 129.59 468.979 129.737C468.999 129.884 469.069 130.02 469.175 130.123C469.282 130.226 469.42 130.29 469.568 130.305L477.224 129.284L473.128 134.669C473.021 134.809 472.975 134.987 472.999 135.161C473.023 135.336 473.115 135.494 473.256 135.601C473.396 135.707 473.573 135.754 473.748 135.73C473.922 135.706 474.08 135.613 474.187 135.473C475.82 133.329 477.454 131.173 479.1 129.093L486.449 128.098C486.296 128.327 486.169 128.531 486.079 128.646L483.298 132.296L479.112 137.795C479.006 137.936 478.959 138.113 478.983 138.287C479.007 138.462 479.1 138.62 479.24 138.727C479.38 138.833 479.557 138.88 479.732 138.856C479.907 138.832 480.065 138.74 480.171 138.599L488.376 127.842L491.413 127.434C491.553 128.442 491.694 129.463 491.821 130.471L483.604 141.151C483.496 141.292 483.448 141.469 483.47 141.645C483.493 141.821 483.585 141.981 483.725 142.089C483.866 142.197 484.043 142.245 484.219 142.223C484.395 142.2 484.555 142.108 484.663 141.968L488.619 136.774L491.63 132.819L492.064 132.321C492.396 134.771 492.715 137.221 493.046 139.671L488.146 146.115C488.038 146.255 487.99 146.433 488.013 146.609C488.036 146.785 488.127 146.944 488.268 147.053C488.408 147.161 488.586 147.209 488.762 147.186C488.938 147.164 489.097 147.072 489.206 146.931L493.302 141.547L494.335 149.203C494.39 149.34 494.49 149.456 494.618 149.53C494.747 149.604 494.896 149.634 495.043 149.613C495.19 149.593 495.326 149.523 495.429 149.417C495.532 149.31 495.596 149.172 495.611 149.024C495.279 146.472 494.939 143.92 494.59 141.368L499.975 145.464C500.115 145.571 500.292 145.617 500.467 145.593C500.642 145.569 500.8 145.477 500.906 145.336C501.013 145.196 501.06 145.019 501.036 144.844C501.012 144.67 500.919 144.512 500.779 144.405L494.335 139.492L493.34 132.143L493.888 132.5L497.64 135.256L503.139 139.441C503.28 139.548 503.457 139.594 503.632 139.57C503.806 139.546 503.964 139.454 504.071 139.314C504.178 139.173 504.224 138.996 504.2 138.822C504.176 138.647 504.084 138.489 503.943 138.382L493.187 130.178C493.046 129.169 492.906 128.149 492.778 127.141L495.815 126.732L506.572 134.924C506.712 135.033 506.89 135.081 507.066 135.058C507.242 135.035 507.401 134.943 507.51 134.803C507.618 134.663 507.666 134.485 507.643 134.309C507.621 134.133 507.529 133.973 507.389 133.865L502.195 129.91L498.24 126.898L497.742 126.464L505.092 125.469L511.536 130.382C511.676 130.49 511.854 130.538 512.03 130.515C512.205 130.493 512.365 130.401 512.473 130.26C512.582 130.12 512.63 129.942 512.607 129.766C512.584 129.591 512.493 129.431 512.352 129.323L506.967 125.227L514.623 124.193C514.776 124.14 514.904 124.034 514.984 123.894C515.064 123.753 515.09 123.589 515.057 123.431C515.024 123.273 514.935 123.132 514.805 123.035C514.676 122.938 514.516 122.892 514.356 122.904Z" fill="white"/>
<path d="M530.165 159.793L526.541 157.025L530.522 156.489C530.574 156.482 530.624 156.465 530.67 156.439C530.715 156.413 530.755 156.378 530.787 156.337C530.819 156.295 530.843 156.248 530.856 156.197C530.87 156.147 530.874 156.094 530.867 156.042C530.86 155.99 530.843 155.94 530.817 155.895C530.791 155.849 530.756 155.809 530.715 155.777C530.673 155.745 530.626 155.722 530.576 155.708C530.525 155.694 530.472 155.691 530.42 155.698L525.648 156.348L522.139 153.669L522.522 153.592L525.227 153.235L529.297 152.686C529.402 152.671 529.497 152.615 529.56 152.53C529.624 152.445 529.651 152.338 529.636 152.233C529.62 152.128 529.564 152.034 529.479 151.97C529.394 151.907 529.287 151.88 529.183 151.895L521.22 152.967L519.766 151.87L520.876 150.415L528.838 149.343C528.943 149.33 529.038 149.275 529.103 149.191C529.167 149.107 529.196 149.001 529.183 148.896C529.169 148.792 529.114 148.696 529.031 148.632C528.947 148.567 528.841 148.538 528.736 148.552L524.908 149.075L521.973 149.471H521.59C522.471 148.297 523.364 147.136 524.257 145.962L529.029 145.311C529.123 145.287 529.204 145.229 529.258 145.149C529.312 145.069 529.335 144.972 529.322 144.877C529.309 144.781 529.262 144.693 529.19 144.63C529.117 144.567 529.024 144.532 528.927 144.533L524.933 145.068L527.702 141.445C528.009 141.036 527.383 140.551 527.077 140.96L524.308 144.584L523.772 140.602C523.766 140.55 523.749 140.5 523.723 140.455C523.697 140.41 523.662 140.37 523.62 140.338C523.537 140.273 523.431 140.244 523.326 140.258C523.221 140.271 523.126 140.326 523.061 140.41C522.996 140.494 522.968 140.6 522.981 140.705L523.632 145.477L520.952 148.986C520.952 148.833 520.889 148.692 520.876 148.603C520.761 147.71 520.633 146.804 520.506 145.898C520.327 144.545 520.148 143.193 519.957 141.827C519.933 141.733 519.874 141.65 519.793 141.596C519.711 141.542 519.613 141.52 519.516 141.534C519.419 141.549 519.332 141.598 519.269 141.674C519.207 141.749 519.175 141.845 519.179 141.942L520.251 149.904L519.153 151.359L517.699 150.249C517.341 147.595 516.98 144.941 516.614 142.287C516.59 142.193 516.532 142.112 516.452 142.058C516.372 142.004 516.275 141.982 516.18 141.994C516.084 142.007 515.996 142.054 515.933 142.126C515.87 142.199 515.835 142.292 515.836 142.389C516.001 143.665 516.18 144.941 516.346 146.217C516.486 147.199 516.614 148.169 516.754 149.152C516.754 149.241 516.754 149.381 516.754 149.534L513.245 146.868L512.595 142.095C512.57 142.002 512.513 141.921 512.433 141.867C512.353 141.813 512.256 141.79 512.16 141.803C512.065 141.815 511.977 141.862 511.914 141.935C511.85 142.008 511.816 142.101 511.816 142.197L512.352 146.191L508.716 143.422C508.632 143.376 508.535 143.361 508.441 143.381C508.348 143.401 508.265 143.454 508.208 143.53C508.15 143.606 508.122 143.7 508.129 143.795C508.135 143.891 508.176 143.98 508.243 144.048C509.443 144.979 510.655 145.898 511.867 146.817L507.886 147.352C507.781 147.366 507.686 147.421 507.621 147.504C507.557 147.588 507.528 147.694 507.542 147.799C507.555 147.904 507.61 147.999 507.694 148.064C507.777 148.128 507.883 148.157 507.988 148.144L512.76 147.493L516.269 150.172L515.887 150.249L513.182 150.606L509.111 151.168C509.018 151.192 508.937 151.25 508.883 151.33C508.829 151.409 508.806 151.506 508.819 151.602C508.831 151.698 508.878 151.785 508.951 151.849C509.023 151.912 509.117 151.947 509.213 151.946L517.188 150.874L518.643 151.972L517.533 153.426L509.57 154.511C509.477 154.535 509.396 154.593 509.342 154.673C509.288 154.753 509.265 154.849 509.278 154.945C509.29 155.041 509.337 155.128 509.41 155.192C509.483 155.255 509.576 155.29 509.673 155.289L513.501 154.779L516.435 154.37H516.818C515.925 155.544 515.044 156.718 514.151 157.879L509.379 158.53C509.286 158.555 509.205 158.612 509.151 158.692C509.097 158.772 509.074 158.869 509.086 158.964C509.099 159.06 509.146 159.148 509.219 159.211C509.291 159.275 509.385 159.309 509.481 159.309L513.462 158.773L510.706 162.409C510.387 162.805 511.025 163.29 511.331 162.881L514.1 159.258L514.636 163.239C514.65 163.344 514.704 163.439 514.788 163.503C514.872 163.568 514.978 163.597 515.083 163.583C515.188 163.57 515.283 163.515 515.348 163.431C515.412 163.347 515.441 163.242 515.427 163.137L514.777 158.364L517.456 154.855C517.456 155.008 517.52 155.149 517.533 155.238C517.648 156.144 517.775 157.037 517.89 157.943C518.081 159.296 518.26 160.661 518.439 162.014C518.452 162.119 518.507 162.214 518.591 162.278C518.674 162.343 518.78 162.372 518.885 162.358C518.99 162.345 519.085 162.29 519.15 162.206C519.215 162.123 519.243 162.017 519.23 161.912L518.158 153.937L519.255 152.482L520.71 153.592L521.782 161.554C521.795 161.659 521.85 161.755 521.934 161.819C522.017 161.884 522.123 161.912 522.228 161.899C522.333 161.885 522.428 161.831 522.493 161.747C522.558 161.663 522.586 161.557 522.573 161.452C522.394 160.176 522.228 158.9 522.05 157.624C521.922 156.642 521.795 155.672 521.654 154.689C521.654 154.6 521.654 154.46 521.654 154.307L525.163 156.974C525.38 158.569 525.597 160.164 525.801 161.746C525.815 161.851 525.869 161.946 525.953 162.011C526.037 162.075 526.143 162.104 526.248 162.09C526.353 162.077 526.448 162.022 526.513 161.938C526.577 161.855 526.606 161.749 526.592 161.644L526.056 157.663L529.68 160.419C529.763 160.483 529.868 160.512 529.972 160.499C530.076 160.485 530.171 160.431 530.235 160.349C530.3 160.266 530.328 160.161 530.315 160.056C530.302 159.952 530.248 159.858 530.165 159.793Z" fill="white"/>
<path d="M496.364 177.032C496.479 176.139 496.606 175.246 496.721 174.34L494.82 175.794C494.796 175.813 494.768 175.826 494.738 175.834C494.709 175.842 494.678 175.844 494.648 175.84C494.618 175.835 494.589 175.825 494.562 175.81C494.536 175.795 494.513 175.774 494.494 175.75C494.476 175.726 494.463 175.698 494.455 175.668C494.447 175.639 494.445 175.608 494.449 175.578C494.454 175.548 494.464 175.519 494.479 175.492C494.494 175.466 494.515 175.443 494.539 175.424L496.81 173.689L497.168 171.137L496.976 171.265L495.7 172.247L493.761 173.727C493.736 173.746 493.709 173.759 493.679 173.767C493.65 173.775 493.619 173.777 493.589 173.772C493.559 173.768 493.53 173.758 493.503 173.743C493.477 173.727 493.454 173.707 493.435 173.683C493.417 173.658 493.404 173.631 493.396 173.601C493.388 173.572 493.386 173.541 493.39 173.511C493.394 173.481 493.405 173.451 493.42 173.425C493.435 173.399 493.456 173.376 493.48 173.357L497.308 170.461L497.448 169.376L496.377 169.236L492.549 172.132C492.524 172.151 492.497 172.164 492.467 172.172C492.438 172.18 492.407 172.182 492.377 172.177C492.346 172.173 492.317 172.163 492.291 172.148C492.265 172.132 492.242 172.112 492.223 172.088C492.205 172.063 492.191 172.036 492.184 172.006C492.176 171.977 492.174 171.946 492.178 171.916C492.182 171.886 492.192 171.856 492.208 171.83C492.223 171.804 492.244 171.781 492.268 171.762L494.093 170.359L495.496 169.287L495.675 169.147L493.123 168.789L490.851 170.525C490.609 170.716 490.316 170.333 490.558 170.155L492.459 168.7L489.767 168.343C489.713 168.325 489.668 168.289 489.638 168.241C489.608 168.193 489.596 168.136 489.603 168.08C489.611 168.024 489.638 167.973 489.679 167.934C489.721 167.896 489.774 167.874 489.831 167.871L492.523 168.241L491.081 166.327C491.044 166.278 491.028 166.216 491.036 166.155C491.044 166.094 491.077 166.038 491.126 166.001C491.175 165.964 491.237 165.948 491.298 165.956C491.359 165.965 491.414 165.997 491.451 166.046L493.187 168.33L495.739 168.674L495.611 168.483L494.616 167.207L493.148 165.267C493.125 165.218 493.119 165.162 493.131 165.109C493.144 165.055 493.174 165.008 493.217 164.974C493.26 164.94 493.313 164.921 493.368 164.921C493.422 164.921 493.475 164.94 493.518 164.974L496.415 168.802L497.487 168.955L497.64 167.871C496.67 166.595 495.7 165.319 494.743 164.043C494.706 163.993 494.69 163.932 494.698 163.871C494.707 163.81 494.739 163.754 494.788 163.717C494.837 163.68 494.899 163.664 494.96 163.672C495.021 163.68 495.076 163.713 495.113 163.762L496.504 165.599L497.576 166.99L497.729 167.169L498.074 164.617C497.499 163.864 496.925 163.098 496.338 162.345C496.307 162.294 496.295 162.233 496.306 162.174C496.317 162.115 496.35 162.062 496.397 162.026C496.445 161.989 496.504 161.972 496.564 161.977C496.624 161.981 496.68 162.008 496.721 162.052L498.163 163.966L498.533 161.274C498.546 161.22 498.576 161.173 498.618 161.139C498.661 161.105 498.714 161.086 498.769 161.086C498.824 161.086 498.877 161.105 498.92 161.139C498.963 161.173 498.993 161.22 499.005 161.274C498.878 162.167 498.763 163.06 498.635 163.953L500.536 162.511C500.779 162.32 501.072 162.703 500.83 162.881L498.507 164.604L498.163 167.156L498.354 167.028L499.63 166.046L501.57 164.566C501.594 164.547 501.622 164.534 501.651 164.526C501.681 164.518 501.712 164.516 501.742 164.521C501.772 164.525 501.801 164.535 501.827 164.55C501.854 164.566 501.877 164.586 501.895 164.61C501.914 164.635 501.927 164.662 501.935 164.692C501.943 164.721 501.944 164.752 501.94 164.782C501.936 164.813 501.926 164.842 501.911 164.868C501.895 164.894 501.875 164.917 501.851 164.936C500.575 165.905 499.299 166.875 498.023 167.832C498.023 168.19 497.933 168.547 497.882 168.917L498.954 169.057L502.782 166.161C503.025 165.969 503.318 166.352 503.076 166.531L501.238 167.934L499.835 168.993L499.669 169.147L502.221 169.504L504.505 167.768C504.554 167.731 504.616 167.715 504.677 167.723C504.738 167.732 504.793 167.764 504.83 167.813C504.867 167.862 504.884 167.924 504.875 167.985C504.867 168.046 504.835 168.101 504.785 168.138L502.884 169.593L505.577 169.95C505.63 169.968 505.676 170.004 505.706 170.052C505.736 170.1 505.748 170.157 505.74 170.213C505.733 170.269 505.706 170.32 505.664 170.359C505.623 170.397 505.569 170.42 505.513 170.423L502.82 170.052L504.275 171.954C504.307 172.005 504.318 172.066 504.307 172.125C504.296 172.184 504.264 172.237 504.216 172.273C504.168 172.31 504.109 172.327 504.049 172.323C503.989 172.318 503.933 172.291 503.892 172.247L502.157 169.963L499.605 169.619C499.643 169.685 499.686 169.749 499.732 169.81C500.051 170.244 500.383 170.665 500.715 171.086C501.213 171.737 501.698 172.362 502.195 173.026C502.227 173.077 502.238 173.138 502.227 173.197C502.216 173.256 502.184 173.309 502.136 173.345C502.089 173.382 502.029 173.399 501.969 173.394C501.909 173.39 501.854 173.363 501.812 173.319C500.855 172.043 499.886 170.767 498.916 169.491L497.844 169.338C497.844 169.695 497.742 170.052 497.704 170.41C498.661 171.686 499.63 172.962 500.6 174.238C500.779 174.467 500.409 174.761 500.217 174.518L498.826 172.681L497.755 171.29C497.712 171.224 497.66 171.164 497.602 171.112L497.257 173.664L498.992 175.948C499.011 175.972 499.024 176 499.032 176.029C499.04 176.059 499.042 176.089 499.037 176.12C499.033 176.15 499.023 176.179 499.008 176.205C498.992 176.232 498.972 176.255 498.948 176.273C498.923 176.291 498.896 176.305 498.866 176.313C498.837 176.32 498.806 176.322 498.776 176.318C498.746 176.314 498.716 176.304 498.69 176.288C498.664 176.273 498.641 176.253 498.622 176.228L497.168 174.327C497.04 175.233 496.925 176.126 496.798 177.019C496.783 177.065 496.755 177.105 496.717 177.134C496.679 177.163 496.633 177.179 496.585 177.18C496.538 177.182 496.491 177.168 496.451 177.142C496.411 177.115 496.381 177.077 496.364 177.032Z" fill="white"/>
<path d="M470.461 164.094C470.464 164.407 470.373 164.714 470.201 164.976C470.028 165.238 469.782 165.443 469.493 165.564C469.204 165.686 468.886 165.719 468.578 165.66C468.27 165.6 467.987 165.45 467.765 165.23C467.542 165.009 467.39 164.727 467.328 164.42C467.266 164.112 467.296 163.794 467.416 163.504C467.535 163.214 467.738 162.966 467.998 162.792C468.259 162.617 468.565 162.524 468.879 162.524C469.296 162.524 469.697 162.689 469.993 162.983C470.289 163.277 470.458 163.676 470.461 164.094Z" fill="white"/>
<path d="M459.385 210.221V190.634H449.433V210.221L444.278 216.652L451.398 215.389L454.409 217.124L457.42 215.389L464.54 216.652L459.385 210.221Z" fill="#FFCD06"/>
<path d="M465.548 194.666L491.911 199.349L454.409 152.482L416.895 199.349L443.269 194.666L454.409 201.123L465.548 194.666Z" fill="#FFCD06"/>
<path opacity="0.3" d="M465.548 194.666L491.911 199.349L454.409 152.482L416.895 199.349L443.269 194.666L454.409 201.123L465.548 194.666Z" fill="white"/>
<path d="M464.438 173.574L488.159 177.785L454.409 135.6L420.646 177.785L444.38 173.574L454.409 179.38L464.438 173.574Z" fill="#FFCD06"/>
<path opacity="0.7" d="M464.438 173.574L488.159 177.785L454.409 135.6L420.646 177.785L444.38 173.574L454.409 179.38L464.438 173.574Z" fill="white"/>
<path d="M461.542 151.078L478.411 154.077L454.409 124.078L430.407 154.077L447.276 151.078L454.409 155.213L461.542 151.078Z" fill="#FFCD06"/>
<path opacity="0.8" d="M461.542 151.078L478.411 154.077L454.409 124.078L430.407 154.077L447.276 151.078L454.409 155.213L461.542 151.078Z" fill="white"/>
<path d="M454.409 106.278L457.369 112.275L463.979 113.232L459.194 117.902L460.33 124.486L454.409 121.386L448.488 124.486L449.624 117.902L444.839 113.232L451.449 112.275L454.409 106.278Z" fill="white"/>
<path d="M439.25 143.027C439.25 143.027 447.468 162.396 474.621 160.891C474.672 160.865 445.988 168.164 439.25 143.027Z" fill="white"/>
<path d="M442.555 138.893C442.555 138.893 455.187 146 465.663 138.152C465.663 138.152 456.004 151.499 442.555 138.893Z" fill="white"/>
<path d="M476.892 163.711C476.892 163.711 460.878 182.736 436.392 174.991C436.392 174.991 458.811 192.076 476.892 163.711Z" fill="white"/>
<path d="M448.807 146.153C448.81 146.517 448.704 146.874 448.503 147.179C448.302 147.483 448.015 147.72 447.679 147.861C447.343 148.001 446.972 148.039 446.615 147.968C446.257 147.898 445.928 147.723 445.671 147.465C445.413 147.207 445.238 146.879 445.167 146.521C445.097 146.163 445.134 145.793 445.275 145.457C445.416 145.12 445.653 144.834 445.957 144.633C446.261 144.432 446.618 144.326 446.983 144.328C447.467 144.328 447.931 144.521 448.273 144.863C448.615 145.205 448.807 145.669 448.807 146.153Z" fill="white"/>
<path d="M465.816 144.316C465.816 144.679 465.709 145.034 465.507 145.336C465.305 145.639 465.018 145.874 464.682 146.013C464.346 146.152 463.977 146.189 463.621 146.118C463.264 146.047 462.937 145.872 462.68 145.615C462.423 145.358 462.248 145.03 462.177 144.674C462.106 144.318 462.142 143.948 462.281 143.612C462.421 143.277 462.656 142.99 462.958 142.788C463.26 142.586 463.616 142.478 463.979 142.478C464.466 142.478 464.934 142.672 465.278 143.016C465.623 143.361 465.816 143.828 465.816 144.316Z" fill="white"/>
<path d="M444.392 156.272C444.414 156.525 444.382 156.78 444.299 157.02C444.217 157.261 444.086 157.482 443.914 157.669C443.742 157.856 443.532 158.005 443.3 158.107C443.067 158.209 442.816 158.262 442.561 158.262C442.307 158.262 442.056 158.209 441.823 158.107C441.59 158.005 441.381 157.856 441.209 157.669C441.037 157.482 440.906 157.261 440.823 157.02C440.741 156.78 440.709 156.525 440.73 156.272C440.769 155.812 440.978 155.384 441.317 155.072C441.656 154.76 442.1 154.587 442.561 154.587C443.022 154.587 443.466 154.76 443.805 155.072C444.144 155.384 444.354 155.812 444.392 156.272Z" fill="white"/>
<path d="M457.765 163.711C457.762 164.071 457.653 164.423 457.451 164.721C457.249 165.019 456.963 165.251 456.63 165.387C456.296 165.524 455.929 165.558 455.576 165.486C455.223 165.414 454.899 165.239 454.645 164.984C454.392 164.728 454.219 164.403 454.15 164.049C454.08 163.696 454.117 163.329 454.256 162.997C454.394 162.664 454.628 162.38 454.928 162.18C455.228 161.98 455.58 161.873 455.94 161.873C456.181 161.873 456.419 161.921 456.641 162.013C456.864 162.106 457.065 162.241 457.235 162.412C457.405 162.583 457.539 162.786 457.63 163.009C457.721 163.231 457.766 163.47 457.765 163.711Z" fill="white"/>
<path d="M438.217 180.095C438.214 180.455 438.105 180.806 437.903 181.105C437.701 181.403 437.415 181.635 437.081 181.771C436.748 181.907 436.381 181.942 436.028 181.87C435.675 181.798 435.351 181.623 435.097 181.368C434.843 181.112 434.671 180.787 434.602 180.433C434.532 180.079 434.569 179.713 434.707 179.381C434.846 179.048 435.08 178.764 435.38 178.564C435.679 178.364 436.032 178.257 436.392 178.257C436.633 178.257 436.871 178.305 437.093 178.397C437.315 178.49 437.517 178.625 437.687 178.796C437.856 178.967 437.991 179.169 438.081 179.392C438.172 179.615 438.218 179.854 438.217 180.095Z" fill="white"/>
<path d="M454.001 183.744C453.998 184.104 453.889 184.456 453.687 184.754C453.485 185.053 453.199 185.284 452.865 185.421C452.532 185.557 452.165 185.591 451.812 185.519C451.459 185.447 451.135 185.273 450.881 185.017C450.627 184.761 450.455 184.436 450.385 184.082C450.316 183.729 450.353 183.363 450.491 183.03C450.63 182.697 450.864 182.413 451.164 182.213C451.463 182.013 451.816 181.907 452.176 181.906C452.417 181.906 452.655 181.954 452.877 182.047C453.099 182.139 453.301 182.275 453.471 182.445C453.64 182.616 453.774 182.819 453.865 183.042C453.956 183.265 454.002 183.503 454.001 183.744Z" fill="white"/>
<path d="M468.879 175.96C468.881 176.274 468.79 176.582 468.617 176.844C468.445 177.106 468.198 177.311 467.908 177.432C467.618 177.554 467.299 177.586 466.991 177.525C466.683 177.465 466.4 177.314 466.178 177.092C465.956 176.87 465.805 176.587 465.744 176.279C465.683 175.97 465.716 175.651 465.837 175.362C465.959 175.072 466.163 174.825 466.425 174.652C466.688 174.479 466.995 174.388 467.309 174.391C467.515 174.391 467.72 174.431 467.91 174.51C468.1 174.589 468.273 174.705 468.419 174.85C468.565 174.996 468.68 175.169 468.759 175.36C468.838 175.55 468.879 175.754 468.879 175.96Z" fill="white"/>
<path d="M183.157 304.44L230.054 308.345C236.421 308.876 242.317 311.913 246.444 316.791C250.572 321.668 252.593 327.985 252.062 334.352L248.157 381.249C247.627 387.616 244.589 393.512 239.712 397.639C234.835 401.767 228.518 403.788 222.151 403.258L175.254 399.352C168.887 398.822 162.991 395.784 158.863 390.907C154.736 386.03 152.715 379.713 153.245 373.346L157.146 326.5C157.404 323.343 158.281 320.268 159.729 317.45C161.176 314.632 163.164 312.128 165.58 310.079C167.995 308.03 170.791 306.478 173.807 305.51C176.823 304.543 180.001 304.179 183.157 304.44Z" fill="#FFCD06"/>
<path opacity="0.5" d="M183.157 304.44L230.054 308.345C236.421 308.876 242.317 311.913 246.444 316.791C250.572 321.668 252.593 327.985 252.062 334.352L248.157 381.249C247.627 387.616 244.589 393.512 239.712 397.639C234.835 401.767 228.518 403.788 222.151 403.258L175.254 399.352C168.887 398.822 162.991 395.784 158.863 390.907C154.736 386.03 152.715 379.713 153.245 373.346L157.146 326.5C157.404 323.343 158.281 320.268 159.729 317.45C161.176 314.632 163.164 312.128 165.58 310.079C167.995 308.03 170.791 306.478 173.807 305.51C176.823 304.543 180.001 304.179 183.157 304.44Z" fill="white"/>
<path d="M230.956 393.136H225.597C223.453 393.136 221.398 392.285 219.881 390.771C218.364 389.256 217.51 387.202 217.507 385.058L218.872 348.348H237.706L239.058 385.122C239.038 387.257 238.175 389.297 236.658 390.798C235.14 392.299 233.09 393.139 230.956 393.136Z" fill="white"/>
<path d="M246.268 344.928C246.27 346.486 245.811 348.009 244.947 349.306C244.084 350.602 242.855 351.613 241.417 352.211C239.978 352.809 238.395 352.967 236.867 352.664C235.339 352.362 233.935 351.613 232.832 350.513C231.73 349.412 230.979 348.009 230.674 346.482C230.369 344.954 230.525 343.37 231.12 341.931C231.716 340.492 232.725 339.261 234.02 338.396C235.315 337.53 236.837 337.068 238.395 337.068C240.481 337.068 242.481 337.896 243.957 339.37C245.433 340.843 246.264 342.842 246.268 344.928Z" fill="#FFCD06"/>
<path opacity="0.8" d="M246.268 344.928C246.27 346.486 245.811 348.009 244.947 349.306C244.084 350.602 242.855 351.613 241.417 352.211C239.978 352.809 238.395 352.967 236.867 352.664C235.339 352.362 233.935 351.613 232.832 350.513C231.73 349.412 230.979 348.009 230.674 346.482C230.369 344.954 230.525 343.37 231.12 341.931C231.716 340.492 232.725 339.261 234.02 338.396C235.315 337.53 236.837 337.068 238.395 337.068C240.481 337.068 242.481 337.896 243.957 339.37C245.433 340.843 246.264 342.842 246.268 344.928Z" fill="white"/>
<path d="M239.008 338.306V343.946L242.899 340.054C241.828 339.061 240.461 338.447 239.008 338.306Z" fill="#FFCD06"/>
<path d="M236.711 344.89L232.883 341.062C232.075 342.177 231.629 343.513 231.607 344.89H236.711Z" fill="#FFCD06"/>
<path d="M237.668 338.306C236.236 338.46 234.894 339.074 233.84 340.054L237.668 343.946V338.306Z" fill="#FFCD06"/>
<path d="M236.711 346.243H231.772C232.036 347.468 232.637 348.595 233.508 349.496L236.711 346.243Z" fill="#FFCD06"/>
<path d="M239.964 346.243L243.218 349.496C244.071 348.589 244.654 347.462 244.902 346.243H239.964Z" fill="#FFCD06"/>
<path d="M239.964 344.89H245.068C245.046 343.513 244.6 342.177 243.792 341.062L239.964 344.89Z" fill="#FFCD06"/>
<path d="M237.668 347.187L234.465 350.377C235.411 351.045 236.515 351.454 237.668 351.563V347.187Z" fill="#FFCD06"/>
<path d="M239.008 347.187V351.563C240.16 351.454 241.265 351.045 242.21 350.377L239.008 347.187Z" fill="#FFCD06"/>
<g opacity="0.4">
<path d="M239.008 338.306V343.946L242.899 340.054C241.828 339.061 240.461 338.447 239.008 338.306Z" fill="white"/>
<path d="M236.711 344.89L232.883 341.062C232.075 342.177 231.629 343.513 231.607 344.89H236.711Z" fill="white"/>
<path d="M237.668 338.306C236.236 338.46 234.894 339.074 233.84 340.054L237.668 343.946V338.306Z" fill="white"/>
<path d="M236.711 346.243H231.772C232.036 347.468 232.637 348.595 233.508 349.496L236.711 346.243Z" fill="white"/>
<path d="M239.965 346.243L243.218 349.496C244.071 348.589 244.654 347.462 244.903 346.243H239.965Z" fill="white"/>
<path d="M239.965 344.89H245.069C245.046 343.513 244.601 342.177 243.793 341.062L239.965 344.89Z" fill="white"/>
<path d="M237.668 347.187L234.465 350.377C235.411 351.045 236.515 351.454 237.668 351.563V347.187Z" fill="white"/>
<path d="M239.008 347.187V351.563C240.16 351.454 241.265 351.045 242.21 350.377L239.008 347.187Z" fill="white"/>
</g>
<path d="M236.57 354.115H219.982L218.847 385.097C218.857 386.877 219.571 388.581 220.833 389.836C222.096 391.091 223.804 391.796 225.584 391.796H230.956C232.742 391.792 234.453 391.082 235.716 389.819C236.979 388.556 237.69 386.844 237.693 385.058L236.57 354.115Z" fill="#FFCD06"/>
<path opacity="0.3" d="M236.57 354.115H219.982L218.847 385.097C218.857 386.877 219.571 388.581 220.833 389.836C222.096 391.091 223.804 391.796 225.584 391.796H230.956C232.742 391.792 234.453 391.082 235.716 389.819C236.979 388.556 237.69 386.844 237.693 385.058L236.57 354.115Z" fill="white"/>
<path d="M211.688 339.416H217.979C220.62 339.416 223.338 339.059 224.435 342.147C225.711 345.885 225.852 350.479 226.528 354.396C226.745 355.672 228.697 355.136 228.48 353.86L227.294 346.97C226.936 344.864 226.911 342.21 225.928 340.284C223.619 335.779 215.72 337.4 211.688 337.4C211.421 337.4 211.164 337.506 210.975 337.695C210.786 337.884 210.68 338.141 210.68 338.408C210.68 338.675 210.786 338.932 210.975 339.121C211.164 339.31 211.421 339.416 211.688 339.416Z" fill="#FFCD06"/>
<g opacity="0.3">
<path d="M211.688 339.416H217.979C220.62 339.416 223.338 339.059 224.435 342.147C225.711 345.885 225.852 350.479 226.528 354.396C226.745 355.672 228.697 355.136 228.48 353.86L227.294 346.97C226.936 344.864 226.911 342.21 225.928 340.284C223.619 335.779 215.72 337.4 211.688 337.4C211.421 337.4 211.164 337.506 210.975 337.695C210.786 337.884 210.68 338.141 210.68 338.408C210.68 338.675 210.786 338.932 210.975 339.121C211.164 339.31 211.421 339.416 211.688 339.416Z" fill="white"/>
</g>
<path d="M227.628 355.022L225.39 352.784C224.892 352.286 224.084 352.286 223.586 352.784L221.348 355.022C220.85 355.52 220.85 356.328 221.348 356.827L223.586 359.064C224.084 359.562 224.892 359.562 225.39 359.064L227.628 356.827C228.126 356.328 228.126 355.52 227.628 355.022Z" fill="#FFCD06"/>
<path d="M234.974 356.19L231.888 355.488C231.201 355.332 230.517 355.762 230.361 356.45L229.659 359.535C229.503 360.222 229.933 360.906 230.621 361.062L233.706 361.764C234.393 361.92 235.077 361.49 235.233 360.803L235.935 357.717C236.091 357.03 235.661 356.346 234.974 356.19Z" fill="#FFCD06"/>
<path d="M225.441 361.391L222.303 361.801C221.605 361.893 221.112 362.533 221.204 363.232L221.614 366.37C221.705 367.068 222.346 367.561 223.045 367.469L226.182 367.059C226.881 366.968 227.373 366.327 227.282 365.628L226.872 362.491C226.78 361.792 226.14 361.3 225.441 361.391Z" fill="#FFCD06"/>
<path d="M234.565 365.978L231.825 364.396C231.214 364.043 230.434 364.253 230.082 364.863L228.499 367.603C228.147 368.214 228.356 368.994 228.967 369.346L231.707 370.929C232.317 371.281 233.098 371.072 233.45 370.462L235.032 367.721C235.385 367.111 235.176 366.33 234.565 365.978Z" fill="#FFCD06"/>
<path opacity="0.8" d="M227.628 355.022L225.39 352.784C224.892 352.286 224.084 352.286 223.586 352.784L221.348 355.022C220.85 355.52 220.85 356.328 221.348 356.827L223.586 359.064C224.084 359.562 224.892 359.562 225.39 359.064L227.628 356.827C228.126 356.328 228.126 355.52 227.628 355.022Z" fill="white"/>
<path opacity="0.8" d="M234.974 356.19L231.888 355.488C231.201 355.332 230.517 355.762 230.361 356.45L229.659 359.535C229.503 360.222 229.933 360.906 230.621 361.062L233.706 361.764C234.393 361.92 235.077 361.49 235.233 360.803L235.935 357.717C236.091 357.03 235.661 356.346 234.974 356.19Z" fill="white"/>
<path opacity="0.8" d="M225.441 361.391L222.303 361.801C221.605 361.893 221.112 362.533 221.204 363.232L221.614 366.37C221.705 367.068 222.346 367.561 223.045 367.469L226.182 367.059C226.881 366.968 227.373 366.327 227.282 365.628L226.872 362.491C226.78 361.792 226.14 361.3 225.441 361.391Z" fill="white"/>
<path opacity="0.8" d="M234.565 365.978L231.825 364.396C231.214 364.043 230.434 364.253 230.082 364.863L228.499 367.603C228.147 368.214 228.356 368.994 228.967 369.346L231.707 370.929C232.317 371.281 233.098 371.072 233.45 370.462L235.032 367.721C235.385 367.111 235.176 366.33 234.565 365.978Z" fill="white"/>
<path d="M160.214 393.135C163.977 396.709 168.849 398.888 174.021 399.311L223.3 403.42C227.413 403.767 231.542 402.994 235.251 401.183C238.96 399.372 242.11 396.591 244.367 393.135H160.214Z" fill="#FFCD06"/>
<path opacity="0.2" d="M160.214 393.135C163.977 396.709 168.849 398.888 174.021 399.311L223.3 403.42C227.413 403.767 231.542 402.994 235.251 401.183C238.96 399.372 242.11 396.591 244.367 393.135H160.214Z" fill="white"/>
<path d="M190.507 338.229C194.615 338.229 197.946 334.899 197.946 330.79C197.946 326.682 194.615 323.351 190.507 323.351C186.398 323.351 183.068 326.682 183.068 330.79C183.068 334.899 186.398 338.229 190.507 338.229Z" fill="white"/>
<path d="M183.744 324.933C184.024 324.602 184.331 324.295 184.663 324.015L179.916 319.306C179.788 319.206 179.628 319.156 179.467 319.166C179.305 319.176 179.152 319.245 179.038 319.359C178.923 319.474 178.854 319.627 178.844 319.788C178.835 319.95 178.884 320.11 178.984 320.238L183.744 324.933Z" fill="white"/>
<path d="M181.549 330.79C181.549 330.56 181.549 330.356 181.549 330.139H174.901C174.754 330.169 174.621 330.249 174.526 330.365C174.431 330.481 174.379 330.627 174.379 330.777C174.379 330.928 174.431 331.073 174.526 331.19C174.621 331.306 174.754 331.386 174.901 331.415H181.549C181.562 331.224 181.549 331.007 181.549 330.79Z" fill="white"/>
<path d="M197.282 324.933L201.978 320.238C202.039 320.177 202.088 320.105 202.121 320.026C202.155 319.947 202.172 319.862 202.173 319.776C202.173 319.69 202.157 319.605 202.125 319.526C202.092 319.446 202.045 319.374 201.984 319.312C201.924 319.251 201.852 319.203 201.773 319.169C201.694 319.136 201.609 319.118 201.523 319.118C201.437 319.117 201.352 319.133 201.272 319.166C201.193 319.198 201.12 319.246 201.059 319.306L196.351 324.015C196.683 324.298 196.994 324.605 197.282 324.933Z" fill="white"/>
<path d="M190.507 321.833H191.157V315.172C191.128 315.025 191.048 314.892 190.932 314.797C190.815 314.701 190.67 314.649 190.519 314.649C190.369 314.649 190.223 314.701 190.107 314.797C189.991 314.892 189.911 315.025 189.881 315.172V321.82L190.507 321.833Z" fill="white"/>
<path d="M206.087 330.139H199.426C199.426 330.356 199.426 330.56 199.426 330.79C199.426 331.02 199.426 331.224 199.426 331.441H206.087C206.259 331.441 206.425 331.372 206.547 331.25C206.669 331.128 206.738 330.963 206.738 330.79C206.738 330.618 206.669 330.452 206.547 330.33C206.425 330.208 206.259 330.139 206.087 330.139Z" fill="white"/>
<path d="M197.282 336.634C196.991 336.964 196.68 337.275 196.351 337.566L201.059 342.261C201.183 342.372 201.345 342.43 201.511 342.425C201.677 342.421 201.834 342.353 201.952 342.235C202.069 342.118 202.137 341.96 202.142 341.794C202.147 341.628 202.088 341.467 201.978 341.343L197.282 336.634Z" fill="white"/>
<path d="M183.744 336.634L179.036 341.343C178.975 341.404 178.928 341.476 178.895 341.556C178.863 341.636 178.847 341.721 178.847 341.807C178.848 341.98 178.918 342.146 179.042 342.268C179.165 342.39 179.332 342.457 179.506 342.456C179.679 342.455 179.845 342.385 179.967 342.261C181.537 340.692 183.093 339.122 184.663 337.566C184.334 337.278 184.027 336.967 183.744 336.634Z" fill="white"/>
<path d="M190.507 339.748H189.856V346.408C189.886 346.556 189.965 346.688 190.082 346.784C190.198 346.879 190.344 346.931 190.494 346.931C190.644 346.931 190.79 346.879 190.906 346.784C191.023 346.688 191.102 346.556 191.132 346.408V339.748H190.507Z" fill="white"/>
<path d="M187.891 365.013C187.885 364.94 187.885 364.868 187.891 364.796C187.891 363.634 189.575 362.626 192.063 362.116C192.01 362.004 191.979 361.883 191.974 361.759C191.974 360.712 194.182 359.87 196.912 359.87C199.643 359.87 201.85 360.712 201.85 361.759C201.833 361.926 201.778 362.088 201.69 362.232C201.601 362.375 201.482 362.497 201.34 362.588C201.838 362.708 202.307 362.927 202.719 363.232C203.131 363.536 203.478 363.921 203.739 364.362C207.12 364.719 209.621 365.893 209.621 367.297C209.621 368.968 206.048 370.333 201.646 370.333H200.779C199.184 371.724 195.547 372.694 191.311 372.694C185.607 372.694 180.975 370.933 180.975 368.751C180.95 367.016 183.846 365.548 187.891 365.013Z" fill="#FFCD06"/>
<path opacity="0.7" d="M187.891 365.013C187.885 364.94 187.885 364.868 187.891 364.796C187.891 363.634 189.575 362.626 192.063 362.116C192.01 362.004 191.979 361.883 191.974 361.759C191.974 360.712 194.182 359.87 196.912 359.87C199.643 359.87 201.85 360.712 201.85 361.759C201.833 361.926 201.778 362.088 201.69 362.232C201.601 362.375 201.482 362.497 201.34 362.588C201.838 362.708 202.307 362.927 202.719 363.232C203.131 363.536 203.478 363.921 203.739 364.362C207.12 364.719 209.621 365.893 209.621 367.297C209.621 368.968 206.048 370.333 201.646 370.333H200.779C199.184 371.724 195.547 372.694 191.311 372.694C185.607 372.694 180.975 370.933 180.975 368.751C180.95 367.016 183.846 365.548 187.891 365.013Z" fill="white"/>
<path d="M187.572 357.28C187.584 357.178 187.584 357.075 187.572 356.974C187.572 355.34 185.186 353.937 181.677 353.209C181.766 353.054 181.814 352.878 181.817 352.699C181.817 351.232 178.704 350.045 174.863 350.045C171.022 350.045 167.921 351.232 167.921 352.699C167.942 352.938 168.019 353.169 168.145 353.373C168.272 353.577 168.444 353.748 168.649 353.873C167.94 354.043 167.274 354.358 166.692 354.797C166.111 355.236 165.626 355.79 165.267 356.425C160.495 356.923 156.986 358.569 156.986 360.546C156.986 362.907 162.014 364.821 168.202 364.821H169.478C171.737 366.773 176.841 368.139 182.8 368.139C190.826 368.139 197.346 365.65 197.346 362.588C197.384 360.074 193.301 358.02 187.572 357.28Z" fill="#FFCD06"/>
<path opacity="0.9" d="M187.572 357.28C187.584 357.178 187.584 357.075 187.572 356.974C187.572 355.34 185.186 353.937 181.677 353.209C181.766 353.054 181.814 352.878 181.817 352.699C181.817 351.232 178.704 350.045 174.863 350.045C171.022 350.045 167.921 351.232 167.921 352.699C167.942 352.938 168.019 353.169 168.145 353.373C168.272 353.577 168.444 353.748 168.649 353.873C167.94 354.043 167.274 354.358 166.692 354.797C166.111 355.236 165.626 355.79 165.267 356.425C160.495 356.923 156.986 358.569 156.986 360.546C156.986 362.907 162.014 364.821 168.202 364.821H169.478C171.737 366.773 176.841 368.139 182.8 368.139C190.826 368.139 197.346 365.65 197.346 362.588C197.384 360.074 193.301 358.02 187.572 357.28Z" fill="white"/>
<path d="M379.814 499.439L381.116 509.086L371.967 511.446L369.759 501.021L379.814 499.439Z" fill="#FAB27B"/>
<path d="M366.837 513.373C365.75 513.72 364.573 513.652 363.532 513.182C363.389 513.042 363.293 512.862 363.257 512.665C363.22 512.469 363.245 512.266 363.328 512.084C363.453 511.754 363.7 511.485 364.017 511.331C365.702 510.477 369.861 511.88 370.04 511.944C370.091 511.958 370.135 511.988 370.168 512.029C370.2 512.07 370.218 512.121 370.219 512.174C370.22 512.228 370.205 512.281 370.175 512.327C370.146 512.373 370.103 512.408 370.053 512.429C369.011 512.838 367.935 513.154 366.837 513.373ZM364.719 511.676C364.555 511.704 364.396 511.755 364.247 511.829C364.147 511.867 364.058 511.927 363.985 512.004C363.912 512.081 363.858 512.174 363.826 512.276C363.698 512.633 363.826 512.773 363.89 512.85C364.515 513.45 367.22 512.926 369.172 512.288C367.74 511.806 366.229 511.598 364.719 511.676Z" fill="#FFCD06"/>
<path d="M370.04 512.429C370.024 512.438 370.007 512.443 369.989 512.443C369.971 512.443 369.953 512.438 369.938 512.429C368.534 512.11 365.51 510.298 365.497 509.047C365.497 508.754 365.612 508.358 366.301 508.154C366.547 508.077 366.807 508.051 367.063 508.077C367.32 508.104 367.569 508.182 367.794 508.307C369.376 509.162 370.244 511.995 370.282 512.135C370.296 512.181 370.296 512.229 370.282 512.274C370.269 512.32 370.242 512.36 370.206 512.391C370.157 512.424 370.098 512.438 370.04 512.429ZM366.569 508.601H366.416C365.969 508.728 365.969 508.92 365.969 508.996C366.046 509.724 368.088 511.217 369.581 511.74C369.213 510.546 368.486 509.495 367.501 508.728C367.216 508.575 366.887 508.525 366.569 508.588V508.601Z" fill="#FFCD06"/>
<path d="M370.857 510.706L382.532 508.397C382.748 508.357 382.97 508.391 383.165 508.493C383.359 508.595 383.513 508.758 383.604 508.958L387.598 518.043C387.687 518.262 387.729 518.497 387.719 518.732C387.71 518.968 387.65 519.199 387.543 519.41C387.437 519.62 387.286 519.805 387.102 519.953C386.918 520.1 386.704 520.206 386.475 520.263C382.239 521.016 378.449 521.539 373.204 522.573C367.016 523.849 368.738 524.232 361.478 525.763C357.101 526.694 355.315 521.871 357.127 521.259C365.421 518.503 365.804 515.759 368.483 512.059C369.088 511.339 369.93 510.86 370.857 510.706Z" fill="#263238"/>
<path opacity="0.2" d="M370.946 506.649L380.58 505.092L379.916 500.179L370.091 502.565L370.946 506.649Z" fill="black"/>
<path d="M277.823 498.878L275.016 508.193L265.714 506.547L268.024 496.147L277.823 498.878Z" fill="#FAB27B"/>
<path d="M260.304 506.176C259.028 505.857 257.675 505.296 257.369 504.632C257.301 504.443 257.291 504.236 257.341 504.041C257.391 503.845 257.499 503.669 257.65 503.535C257.898 503.289 258.232 503.147 258.581 503.14C260.47 503.076 263.685 506.062 263.813 506.202C263.852 506.236 263.88 506.281 263.891 506.332C263.902 506.382 263.897 506.435 263.877 506.483C263.855 506.532 263.819 506.574 263.774 506.603C263.728 506.633 263.676 506.648 263.622 506.649C262.504 506.586 261.394 506.428 260.304 506.176ZM259.104 503.714C258.94 503.681 258.771 503.681 258.607 503.714C258.5 503.706 258.393 503.722 258.293 503.762C258.194 503.802 258.104 503.864 258.033 503.943C257.777 504.211 257.803 504.377 257.854 504.479C258.186 505.296 260.853 505.947 262.894 506.164C261.778 505.103 260.464 504.27 259.028 503.714H259.104Z" fill="#FFCD06"/>
<path d="M263.519 506.636C263.487 506.649 263.45 506.649 263.417 506.636C262.282 505.768 260.278 502.808 260.789 501.723C260.878 501.442 261.184 501.149 261.886 501.238C262.139 501.274 262.383 501.36 262.602 501.491C262.821 501.623 263.012 501.797 263.162 502.004C264.247 503.433 263.851 506.368 263.838 506.495C263.835 506.542 263.817 506.587 263.788 506.624C263.758 506.66 263.718 506.687 263.672 506.7C263.616 506.694 263.563 506.672 263.519 506.636ZM261.95 501.723H261.81C261.337 501.647 261.274 501.825 261.235 501.889C261.006 502.591 262.243 504.786 263.379 505.883C263.535 504.647 263.313 503.392 262.741 502.285C262.552 502.02 262.269 501.837 261.95 501.774V501.723Z" fill="#FFCD06"/>
<path d="M265 505.411L276.586 508.167C276.798 508.216 276.987 508.337 277.122 508.509C277.257 508.68 277.329 508.893 277.326 509.111L277.185 519.038C277.179 519.453 277.011 519.848 276.718 520.141C276.426 520.434 276.03 520.601 275.616 520.608C275.506 520.621 275.394 520.621 275.284 520.608C271.124 519.549 267.462 518.439 262.256 517.214C256.119 515.759 257.497 516.856 250.262 515.249C245.898 514.279 246.268 509.137 248.169 509.341C256.859 510.272 258.377 507.937 262.32 505.691C263.15 505.276 264.102 505.177 265 505.411Z" fill="#263238"/>
<path opacity="0.2" d="M276.522 503.191L277.76 499.12L269.708 496.606L268.024 496.147L267.092 500.32L276.522 503.191Z" fill="black"/>
<path d="M359.602 302.501L314.47 292.115L306.738 321.565L282.034 391.579L265.28 496.747L282.034 501.098L306.151 397.946L335.282 331.339L359.602 333.738V302.501Z" fill="#263238"/>
<path opacity="0.3" d="M331.543 339.875L329.208 325.252L326.962 350.351L331.543 339.875Z" fill="black"/>
<path d="M265.28 493.927L283.081 498.495L282.251 502.17L264.489 497.079L265.28 493.927Z" fill="#FFCD06"/>
<path d="M365.536 394.45L358.479 320.238L354.281 308.18L343.295 308.613L327.651 315.478L340.896 398.303L364.323 503.165L382.736 499.056L365.536 394.45Z" fill="#263238"/>
<path d="M363.507 502.642L383.17 498.329L383.668 501.098L364.004 505.449L363.507 502.642Z" fill="#FFCD06"/>
<path d="M359.641 283.272C360.763 270.576 364.477 233.929 364.477 233.929C361.099 232.14 357.529 230.74 353.835 229.757C349.433 231.9 339.607 236.494 336.328 236.379C333.406 236.29 331.569 230.484 330.714 226.847C326.058 226.932 321.416 227.38 316.831 228.187L312.799 241.164C312.799 241.164 304.709 273.906 308.754 308.154C308.754 308.154 320.238 316.448 343.308 316.448C349.105 316.381 354.867 315.523 360.432 313.896C360.432 313.896 358.952 291.234 359.641 283.272Z" fill="#FFCD06"/>
<path d="M350.134 228.812C347.021 225.189 350.007 211.076 350.007 211.076L338.982 215.121C338.982 215.121 337.834 224.895 335.065 226.886C333.98 227.664 332.347 226.886 330.943 226.886L333.853 236.188L341.126 236.902L354.435 229.973C353.12 229.552 351.168 230.025 350.134 228.812Z" fill="#DD8C6A"/>
<path opacity="0.1" d="M337.63 221.871C340.299 221.661 342.853 220.691 344.99 219.077C347.126 217.463 348.756 215.271 349.688 212.76C349.879 211.727 350.007 211.076 350.007 211.076L338.982 215.121C338.688 217.4 338.236 219.655 337.63 221.871Z" fill="black"/>
<path d="M332.27 226.171L337.004 236.621L328.94 241.317L328.723 226.248L332.27 226.171Z" fill="#FFCD06"/>
<path opacity="0.5" d="M332.27 226.171L337.004 236.621L328.94 241.317L328.723 226.248L332.27 226.171Z" fill="white"/>
<path d="M353.337 228.685L335.639 236.175L341.713 244.163L356.502 230.114L353.337 228.685Z" fill="#FFCD06"/>
<path opacity="0.5" d="M353.337 228.685L335.639 236.175L341.713 244.163L356.502 230.114L353.337 228.685Z" fill="white"/>
<path d="M300.039 238.612L278.985 249.458C272.912 242.438 267.512 234.864 262.856 226.835C262.856 226.835 264.132 219.268 261.797 217.137C259.462 215.006 255.838 208.205 255.838 208.205L250.517 209.851L247.289 214.368L251.117 221.386L256.859 228.672C256.859 228.672 264.949 262.001 277.071 262.001C289.193 262.001 307.516 249.675 307.516 249.675L300.039 238.612Z" fill="#DD8C6A"/>
<path d="M321.475 227.511C321.475 227.511 314.713 226.069 295.777 237.987L304.505 254.141L316.193 248.399L325.125 234.363L321.475 227.511Z" fill="#FFCD06"/>
<path d="M292.166 238.625L295.777 236.864L305.564 254.141L302.374 256.08L292.166 238.625Z" fill="#FFCD06"/>
<path opacity="0.5" d="M292.166 238.625L295.777 236.864L305.564 254.141L302.374 256.08L292.166 238.625Z" fill="white"/>
<path opacity="0.2" d="M312.798 241.164L312.99 240.526C310.068 243.665 308.128 250.594 307.618 252.597L310.833 251.027C311.893 244.864 312.798 241.164 312.798 241.164Z" fill="black"/>
<path d="M376.343 246.077L386.373 255.353C386.373 255.353 395.739 242.695 402.757 234.388C402.757 234.388 401.264 228.621 404.454 225.227L406.151 219.957L411.051 218.681L417.431 227.511L408.92 238.038C408.92 238.038 393.608 268.662 388.504 269.3C383.4 269.938 369.249 256.131 369.249 256.131L376.343 246.077Z" fill="#DD8C6A"/>
<path d="M357.395 231.466C357.395 231.466 364.311 231.249 380.848 246.293L369.364 260.674L358.862 253.018L352.482 237.642L357.395 231.466Z" fill="#FFCD06"/>
<path d="M384.306 247.557L381.052 245.196L368.381 260.483L371.176 262.958L384.306 247.557Z" fill="#FFCD06"/>
<path opacity="0.5" d="M384.306 247.557L381.052 245.196L368.381 260.483L371.176 262.958L384.306 247.557Z" fill="white"/>
<path opacity="0.2" d="M363.239 246.191C362.958 249.037 362.639 252.189 362.32 255.455L366.059 258.199C365.71 254.08 364.76 250.035 363.239 246.191Z" fill="black"/>
<path d="M337.783 180.082C337.783 180.082 326.503 179.929 333.955 190.928L342.593 181.753L337.783 180.082Z" fill="#263238"/>
<path d="M369.121 187.687C369.35 188.267 369.455 188.889 369.427 189.511C369.345 190.286 369.005 191.011 368.461 191.569C367.917 192.126 367.201 192.485 366.429 192.587C366.363 192.614 366.31 192.665 366.278 192.729C366.247 192.793 366.24 192.866 366.259 192.935C366.278 193.003 366.321 193.063 366.38 193.102C366.44 193.141 366.511 193.158 366.582 193.148C367.384 193.024 368.132 192.664 368.729 192.114C369.327 191.565 369.747 190.85 369.938 190.06C370.084 189.201 369.992 188.318 369.67 187.508C369.542 187.164 368.981 187.317 369.121 187.661V187.687Z" fill="#263238"/>
<path d="M358.62 198.495C354.728 207.924 353.286 211.995 346.727 215.261C336.851 220.199 326.12 213.347 327.103 202.948C328.009 193.582 334.235 179.674 344.967 179.138C348.65 178.914 352.271 180.162 355.035 182.608C357.798 185.053 359.478 188.495 359.704 192.178C359.835 194.339 359.464 196.501 358.62 198.495Z" fill="#DD8C6A"/>
<path d="M342.389 195.751C342.121 196.53 341.483 197.027 340.973 196.861C340.462 196.695 340.258 195.904 340.526 195.113C340.794 194.322 341.432 193.837 341.943 194.003C342.453 194.169 342.606 194.998 342.389 195.751Z" fill="#263238"/>
<path d="M333.521 192.74C333.24 193.531 332.615 194.016 332.105 193.85C331.594 193.684 331.39 192.88 331.658 192.102C331.926 191.323 332.564 190.826 333.074 191.004C333.585 191.183 333.789 191.949 333.521 192.74Z" fill="#263238"/>
<path d="M335.767 195.088C334.455 196.642 332.935 198.008 331.25 199.145C331.554 199.568 331.947 199.92 332.401 200.175C332.855 200.431 333.359 200.585 333.878 200.625L335.767 195.088Z" fill="#C13B37"/>
<path d="M346.562 195.228C346.46 195.212 346.367 195.164 346.295 195.09C346.224 195.016 346.179 194.921 346.166 194.82C345.955 194.055 345.589 193.342 345.091 192.726C344.592 192.109 343.972 191.601 343.27 191.234C343.154 191.174 343.065 191.072 343.022 190.948C342.98 190.825 342.986 190.69 343.04 190.571C343.1 190.458 343.201 190.372 343.322 190.332C343.443 190.292 343.575 190.299 343.691 190.354C344.54 190.784 345.286 191.394 345.876 192.14C346.467 192.887 346.888 193.754 347.11 194.679C347.121 194.742 347.119 194.805 347.104 194.867C347.089 194.928 347.061 194.986 347.023 195.036C346.985 195.087 346.936 195.129 346.881 195.159C346.826 195.19 346.765 195.209 346.702 195.215H346.549L346.562 195.228Z" fill="#263238"/>
<path d="M332.27 187.738C332.183 187.722 332.101 187.684 332.032 187.628C331.963 187.573 331.909 187.501 331.875 187.419C331.852 187.359 331.842 187.294 331.845 187.23C331.848 187.166 331.863 187.103 331.891 187.045C331.918 186.987 331.957 186.934 332.004 186.891C332.052 186.848 332.108 186.815 332.168 186.794C332.893 186.493 333.681 186.376 334.462 186.451C335.243 186.527 335.993 186.793 336.647 187.227C336.745 187.301 336.811 187.41 336.832 187.53C336.854 187.651 336.829 187.775 336.762 187.878C336.726 187.93 336.681 187.974 336.627 188.008C336.574 188.042 336.514 188.064 336.452 188.073C336.39 188.083 336.326 188.08 336.266 188.064C336.205 188.048 336.148 188.019 336.098 187.98C335.58 187.654 334.99 187.457 334.38 187.406C333.769 187.355 333.155 187.451 332.589 187.687C332.494 187.744 332.379 187.763 332.27 187.738Z" fill="#263238"/>
<path d="M334.312 204.836C336.462 205.368 338.708 205.368 340.858 204.836C340.858 204.836 340.654 209.098 335.307 208.23L334.312 207.988C334.582 206.955 334.582 205.87 334.312 204.836Z" fill="#263238"/>
<path d="M335.231 205.015V205.997C336.963 206.564 338.825 206.599 340.577 206.099C340.761 205.697 340.873 205.265 340.909 204.823C339.057 205.326 337.113 205.391 335.231 205.015Z" fill="white"/>
<path d="M339.965 207.057C339.508 206.988 339.048 206.954 338.586 206.954C336.775 206.954 335.294 207.478 335.065 208.167L335.358 208.23C337.846 208.639 339.212 207.988 339.965 207.057Z" fill="#C13B37"/>
<path d="M354.447 191.834C354.447 191.834 353.171 193.25 355.175 194.756C355.175 194.756 349.484 200.077 351.691 205.844C353.899 211.612 359.347 205.972 360.942 204.249C362.537 202.527 370.487 192.574 364.043 186.385C357.599 180.197 342.185 175.922 341.572 168.317C341.572 168.317 339.02 173.421 341.917 175.054C341.917 175.054 335.129 178.155 334.146 173.204C334.146 173.204 330.637 178.525 335.422 179.023C335.422 179.023 332.717 182.851 337.579 182.851C342.44 182.851 351.142 185.888 354.447 191.834Z" fill="#263238"/>
<path d="M358.696 206.801C357.5 208.32 355.753 209.305 353.835 209.545C351.283 209.813 350.415 207.427 351.461 205.219C352.431 203.241 354.919 200.715 357.318 201.391C357.73 201.524 358.111 201.737 358.44 202.018C358.769 202.298 359.04 202.641 359.236 203.026C359.433 203.411 359.552 203.831 359.586 204.262C359.621 204.693 359.57 205.127 359.436 205.538C359.284 206.008 359.032 206.439 358.696 206.801Z" fill="#DD8C6A"/>
</svg>
